<svg width="107" height="85" viewBox="0 0 107 85" fill="none" xmlns="http://www.w3.org/2000/svg">
<path d="M10.2699 26.2004C11.6234 27.1661 15.7034 30.0342 22.5102 34.8032C29.3172 39.5722 34.5318 43.2442 38.1543 45.8194C38.5523 46.1017 39.3978 46.7153 40.6913 47.6611C41.985 48.6076 43.06 49.3724 43.9154 49.9558C44.7714 50.539 45.8062 51.1932 47.0208 51.9174C48.2351 52.641 49.3797 53.1852 50.4544 53.5455C51.5294 53.9088 52.5245 54.0887 53.4399 54.0887H53.4999H53.5601C54.4755 54.0887 55.471 53.9086 56.546 53.5455C57.6203 53.1852 58.766 52.6403 59.9792 51.9174C61.193 51.1923 62.2278 50.5387 63.0838 49.9558C63.9398 49.3724 65.0139 48.6076 66.3081 47.6611C67.6014 46.7145 68.4479 46.1017 68.8459 45.8194C72.5075 43.2442 81.8231 36.7039 96.7897 26.1991C99.6955 24.1474 102.123 21.6718 104.073 18.7739C106.025 15.8772 107 12.8385 107 9.65939C107 7.00275 106.054 4.72862 104.163 2.83722C102.272 0.945386 100.033 0 97.446 0H9.55316C6.48826 0 4.12961 1.04625 2.47764 3.13874C0.825881 5.23166 0 7.8477 0 10.9867C0 13.5221 1.09504 16.2697 3.28407 19.2277C5.4729 22.1858 7.80226 24.5103 10.2699 26.2004Z" fill="#E43F65"/>
<path d="M101.028 32.6593C87.9729 41.5932 78.0599 48.5363 71.2937 53.4872C69.0247 55.1769 67.1841 56.4959 65.7706 57.4411C64.357 58.3869 62.4771 59.3528 60.1281 60.3383C57.7799 61.3254 55.5915 61.8174 53.561 61.8174H53.5001H53.4401C51.41 61.8174 49.2203 61.3254 46.8721 60.3383C44.524 59.3528 42.6428 58.3869 41.2296 57.4411C39.8169 56.4959 37.9757 55.1769 35.707 53.4872C30.3328 49.5031 20.441 42.5595 6.03129 32.6593C3.76174 31.131 1.75152 29.3791 0 27.4073V75.3396C0 77.9975 0.93505 80.2703 2.8062 82.162C4.67692 84.0542 6.9264 85 9.55378 85H97.4468C100.074 85 102.323 84.0542 104.194 82.162C106.065 80.2697 107 77.9977 107 75.3396V27.4073C105.288 29.3383 103.298 31.0901 101.028 32.6593Z" fill="#E43F65"/>
</svg>
