<svg xmlns="http://www.w3.org/2000/svg" viewBox="0 0 300 115.1" class="home__graphic"><path d="M126.6,86.6l-4.9,1.5-1.3.4L116.3,90l-1.7.6-5.2,2.1-2.1.9A179,179,0,0,0,80,108.7s13.1-6.6,29.4-12.9l1.9-.7,5.5-2,1.4-.5,4.4-1.5.9-.3,5.2-1.6h.2l-1.7-2.8Z" style="fill:#862267"/><path d="M107.2,90.1l5.1-2,2-.7,3.9-1.4,1.6-.5,4.5-1.5,1.1-.3-1.9-2.8-1.4.5-4.3,1.4-1.8.7-3.6,1.4-2.3.9-4.8,2.1-2.4,1.2a164.4,164.4,0,0,0-23.2,13.1S90.6,96.7,104.8,91Z" style="fill:#862267"/><path d="M210,73.8a42.9,42.9,0,0,0-14.8,2.7l-6.6-1.8,1.8.2V10.8h-1.9a8.6,8.6,0,0,0-8.7-8,8.8,8.8,0,0,0-8.8,8h-1.8V33.5l-.7-1.3h0l-15.2-11-15.2,11h0L132,44.5h2.3v27l-4.6,1.1c-7.6-8.2-25.6-19.7-44.2-23.6L84.1,22.9c2-.9.9-4.6,0-6.8,1.1,2.4,3.5,6.8,5.3,4.5s-2.1-4.4-4.4-5.4c2.5.9,7.2,2.3,6.9-.6s-3.5-1.8-5.9-1c2.4-1.3,5.2-3.2,3.3-4.7s-3.9,1.3-5,3.5c.9-2.6,1.8-6.5-.8-6.2S81.6,9.7,82.4,12c-1.2-2.3-3.2-5.1-4.7-3.2s.8,3.5,2.9,4.6c-2.5-.7-5.6-1.2-5.3,1.2s3.6,1.8,6,1c-2.4,1.2-5.9,3.3-3.8,5s4.4-2.2,5.4-4.5c-.9,2.5-2.2,7,.3,7L81.7,48.3a48.1,48.1,0,0,0-6.4-.7,41.6,41.6,0,0,0-6.1.1,2.5,2.5,0,0,1-.4-.7V40.2h.6a4.6,4.6,0,0,0,2.8-1.1h.3a1.7,1.7,0,0,0,1.7-1.7,3.4,3.4,0,0,0,3.4-3.4,3.5,3.5,0,0,0-2-3.1,5.2,5.2,0,0,0-1.7-1.6.9.9,0,0,0,.3-.7,1.1,1.1,0,0,0-1-1h-.5a3.5,3.5,0,0,0-3-1.7,3.6,3.6,0,0,0-2.3.8h-.6a2.7,2.7,0,0,0-1.7.6,2,2,0,0,0-1.1-.3A2,2,0,0,0,62,29a3.6,3.6,0,0,0-2.1,1.7A1.8,1.8,0,0,0,58.7,32a2.2,2.2,0,0,0-2.1,2.2,2.2,2.2,0,0,0,1.4,2,2.4,2.4,0,0,0,2,1.5,4.5,4.5,0,0,0,4,2.5h.6L66.3,42v5.9H66a90,90,0,0,0-12.4,2.3V47.2H54a2.4,2.4,0,0,0,1.6-.7h.2a1,1,0,0,0,1-1,2.1,2.1,0,0,0,2.1-2.1,2,2,0,0,0-1.2-1.8,3.2,3.2,0,0,0-1-1c.1-.1.1-.2.1-.4a.6.6,0,0,0-.6-.6H56a2.1,2.1,0,0,0-1.9-1.1,2.1,2.1,0,0,0-1.3.5h-.3a2,2,0,0,0-1.1.3l-.6-.2a1.2,1.2,0,0,0-1.2,1.2,1.9,1.9,0,0,0-1.3,1,1,1,0,0,0-.7.8,1.2,1.2,0,0,0-1.2,1.2,1.1,1.1,0,0,0,.8,1.2,1.1,1.1,0,0,0,1.2.9,2.6,2.6,0,0,0,2.4,1.5h.3l1,1.1v2.5A162.6,162.6,0,0,0,22.7,62.3L12.2,67.7c28.2-3.5,57,32.4,57,32.4,5.6-3.1,11.1-5.8,16.4-8.3l-5.9,3.8s8.6-4.3,20.5-9.3l2.7-1.1,4.8-1.9,2.5-1,3.5-1.3,2.1-.8,4-1.3,1.8-.6c9-3,18.2-5.4,26.1-6.2h11.2c9.3.8,20.9,3.2,32.1,6.1-22,9.8-41.3,32.2-41.3,32.2,60.3-13.6,143.1,0,143.1,0C247.9,85.5,238.4,74.3,210,73.8ZM65.4,39.9l.9-.4V41ZM51.6,47c.2-.1.4-.1.5-.3v1Z" style="fill:#862267"/><path d="M83.6,13.9a.8.8,0,0,0-.7.7.7.7,0,0,0,1.4,0A.8.8,0,0,0,83.6,13.9Z" style="fill:#a63384"/><path d="M217.4,77.6v2.5s37.8,10.3,60,25C277.4,105.1,239.5,78.7,217.4,77.6Z" style="fill:#a63384"/><path d="M217.4,85.7s33.8,8,53.6,19.4c0,0-33.8-20.4-53.6-21.2Z" style="fill:#a63384"/><path d="M217.9,91.4s27.6,5.2,43.8,12.6c0,0-27.7-13.3-43.8-13.8Z" style="fill:#a63384"/><path d="M170.8,36.6h0l-13.4-9.8L144,36.6h0l-5.4,10.8h2.1V69.9a99.9,99.9,0,0,1,11-.7,123.4,123.4,0,0,1,22.4,2.3V47.4h2l-5.3-10.8Z" style="fill:#a63384"/></svg>
