<svg xmlns="http://www.w3.org/2000/svg" viewBox="0 0 280.6 107.6" class="home__graphic"><path d="M114.4,83.8l-4.9,1.5-1.3.5-4.1,1.4-1.7.7A47.1,47.1,0,0,0,97.2,90l-2.1.9A169.4,169.4,0,0,0,67.8,106s13.1-6.7,29.4-12.9l1.9-.8,5.5-2,1.4-.5,4.5-1.5.8-.2,5.2-1.6h.2c-.4-.6-.9-1.6-1.7-2.7Z" style="fill:#862267"/><path d="M95.1,87.3l5-1.9,2.1-.8,3.8-1.3,1.6-.6,4.6-1.5,1-.3-1.9-2.7-1.4.4-4.2,1.5-1.9.7-3.6,1.4-2.3.9-4.7,2.1-2.5,1.1A170.3,170.3,0,0,0,67.5,99.5s11-5.5,25.2-11.2Z" style="fill:#862267"/><path d="M197.8,71.1A41.1,41.1,0,0,0,183,73.8l-6.6-1.9,1.8.3V8.1h-1.9a8.7,8.7,0,0,0-17.4,0H157V30.8l-.7-1.4h0L141.1,18.3,125.9,29.4h0l-6,12.3h2.3V68.8l-4.7,1C109.9,61.6,92,50.2,73.3,46.2L71.9,20.1c2-.8.9-4.6,0-6.7,1.2,2.4,3.5,6.7,5.4,4.4s-2.2-4.3-4.5-5.3c2.5.9,7.3,2.3,6.9-.6s-3.5-1.9-5.8-1.1c2.3-1.2,5.1-3.2,3.2-4.7s-3.9,1.3-5,3.6c.9-2.6,1.8-6.6-.8-6.3s-1.9,3.5-1.1,5.9C69,6.9,67.1,4.2,65.5,6.1s.8,3.5,2.9,4.6c-2.5-.8-5.5-1.2-5.3,1.1s3.7,1.8,6.1,1c-2.5,1.2-6,3.4-3.9,5s4.4-2.1,5.4-4.4c-.9,2.4-2.2,6.9.3,6.9L69.5,45.5c-2.1-.3-4.3-.5-6.4-.6s-4-.1-6.1,0l-.4-.6V37.5h.6A4.1,4.1,0,0,0,60,36.4h.3A1.8,1.8,0,0,0,62,34.8a3.4,3.4,0,0,0,3.4-3.4,3.3,3.3,0,0,0-2-3.1,3.7,3.7,0,0,0-1.7-1.6A1.1,1.1,0,0,0,62,26a.9.9,0,0,0-1-1h-.4a3.7,3.7,0,0,0-3.1-1.8,3.6,3.6,0,0,0-2.3.8h-.6a2.7,2.7,0,0,0-1.7.6,2,2,0,0,0-1.1-.3,2,2,0,0,0-2,1.9,3.1,3.1,0,0,0-2.1,1.6,2.4,2.4,0,0,0-1.2,1.4,2.1,2.1,0,0,0-.6,4.1,1.9,1.9,0,0,0,1.9,1.5,4.5,4.5,0,0,0,4,2.5h.6l1.7,1.9v5.8h-.2a88.9,88.9,0,0,0-12.5,2.4V44.4h.4a2.7,2.7,0,0,0,1.7-.6h.2a1,1,0,0,0,1-1,2,2,0,0,0,2-2,2.2,2.2,0,0,0-1.2-1.9,2.2,2.2,0,0,0-1-.9.8.8,0,0,0,.2-.5.6.6,0,0,0-.6-.6h-.3A2.2,2.2,0,0,0,42,36a2.1,2.1,0,0,0-1.4.4h-.3a1.5,1.5,0,0,0-1.1.4l-.6-.2a1.1,1.1,0,0,0-1.2,1.1,2.7,2.7,0,0,0-1.3,1,1.8,1.8,0,0,0-.7.8,1.2,1.2,0,0,0-1.2,1.3A1.3,1.3,0,0,0,35,42a1.3,1.3,0,0,0,1.2.9,2.6,2.6,0,0,0,2.4,1.5h.3L40,45.5V48A161,161,0,0,0,10.5,59.5L0,65c28.3-3.6,57,32.3,57,32.3,5.6-3,11.1-5.8,16.5-8.3-3.8,2.3-6,3.9-6,3.9s8.6-4.3,20.5-9.3l2.7-1.1,4.8-2,2.5-.9,3.5-1.3,2.1-.8,4-1.4,1.8-.6c9-3,18.3-5.4,26.1-6.2h11.2c9.3.8,20.9,3.3,32.1,6.2-22,9.7-41.3,32.1-41.3,32.1,60.3-13.5,143.1,0,143.1,0C235.7,82.7,226.2,71.5,197.8,71.1ZM53.2,37.2l.9-.4v1.5ZM39.4,44.3,40,44v.9Z" style="fill:#862267"/><path d="M71.4,11.2a.7.7,0,1,0,.7.7A.7.7,0,0,0,71.4,11.2Z" style="fill:#a63384"/><path d="M205.2,74.9v2.4s37.8,10.3,60,25C265.2,102.3,227.3,76,205.2,74.9Z" style="fill:#a63384"/><path d="M205.2,83s33.8,8,53.6,19.3c0,0-33.8-20.3-53.6-21.2Z" style="fill:#a63384"/><path d="M205.7,88.7s27.6,5.2,43.8,12.6c0,0-27.7-13.3-43.8-13.9Z" style="fill:#a63384"/><path d="M158.7,33.8h-.1L145.2,24l-13.4,9.8h0l-5.3,10.9h2V67.2a80.2,80.2,0,0,1,11-.8,122.5,122.5,0,0,1,22.4,2.3v-24H164l-5.4-10.9Z" style="fill:#a63384"/></svg>
