<svg height="200" viewBox="0 0 199 202" fill="none" xmlns="http://www.w3.org/2000/svg" class="donate__ways-graphic">
<path d="M92.0056 78.5911H85.5718C85.895 75.2936 83.307 72.4688 80.0256 72.4688C76.7489 72.4688 74.1558 75.2888 74.4794 78.5911C74.0437 78.5911 73.1794 78.5086 72.4624 79.2973C72.1873 79.5999 72.0089 79.9719 71.9375 80.3668C79.2158 82.489 83.6732 90.0076 81.7908 97.5423C80.8307 101.385 78.344 104.553 75.0567 106.451C75.4178 106.72 75.8598 106.886 76.3417 106.886H89.7242C90.8375 106.886 91.7684 106.039 91.8734 104.931L94.1552 80.9547C94.2756 79.6867 93.2775 78.5911 92.0056 78.5911Z" fill="#F29C62"/>
<path d="M26.3991 35.6284C36.2403 35.6284 44.2182 27.6527 44.2182 17.8142C44.2182 7.97569 36.2403 0 26.3991 0C16.5579 0 8.58008 7.97569 8.58008 17.8142C8.58008 27.6527 16.5579 35.6284 26.3991 35.6284Z" fill="#F29C62"/>
<path d="M69.8486 86.3764C65.9859 85.4118 47.0614 80.6857 43.1987 79.7207L34.7649 56.0146L45.2556 71.4474V53.6845C45.2556 47.0382 40.3186 41.6501 34.2286 41.6501H14.5642C8.47417 41.6501 3.53726 47.0378 3.53726 53.6845V115.428H3.54396C3.54475 116.023 3.37072 113.386 5.84352 148.262L0.0968073 190.287C-0.74969 196.479 4.06252 201.999 10.3325 201.999C15.4099 201.999 19.835 198.25 20.5418 193.081L26.4325 149.996C26.5288 149.291 26.5521 148.578 26.502 147.869L24.2017 115.428H26.163L30.5589 146.469V191.685C30.5589 197.382 35.1781 202 40.8763 202C46.5744 202 51.1937 197.382 51.1937 191.685V145.743C51.1937 145.259 51.1597 144.776 51.0918 144.297C49.443 132.654 45.2559 103.147 45.2559 103.147L33.6797 100.256C27.0655 98.6037 23.6934 92.8467 23.3484 89.7563L20.3488 62.8743L29.6622 89.0521C30.5312 91.4942 32.5743 93.4333 35.2195 94.0942L66.0001 101.781C70.242 102.841 74.5621 100.27 75.6284 96.0029C76.6912 91.7487 74.1035 87.4393 69.8486 86.3764Z" fill="#F29C62"/>
<path d="M198.559 189.339L185.676 147.751L184.372 116.606C184.367 116.481 184.357 116.357 184.347 116.234H184.399V55.3344C184.399 48.7789 179.083 43.4646 172.526 43.4646H151.353C144.796 43.4646 139.48 48.7789 139.48 55.3344V55.6512L155.559 50.486L133.616 63.6965L104.754 55.1194C100.614 53.8893 96.264 56.2462 95.0339 60.3828C94.9368 60.7095 94.8697 61.0373 94.8164 61.3648C91.449 60.9719 88.5898 63.6046 88.5898 66.8957C88.5898 69.9371 91.067 72.4681 94.1637 72.4681C96.262 72.4681 98.088 71.3077 99.0387 69.5951C99.4384 69.7939 99.856 69.9679 100.299 70.0997L132.466 79.6591C134.571 80.2853 136.844 79.9961 138.726 78.863L163.623 63.874L139.479 86.5859V115.943L129.485 141.504C129.203 142.225 129.008 142.976 128.904 143.743L122.482 190.912C121.685 196.765 126.231 201.999 132.176 201.999C136.986 201.999 141.178 198.446 141.845 193.548L148.111 147.533L160.348 116.234H164.872C164.803 117.114 164.737 114.79 166.204 149.837C166.239 150.679 166.384 151.512 166.633 152.318L179.893 195.119C181.489 200.272 186.961 203.155 192.117 201.56C197.271 199.964 200.156 194.492 198.559 189.339Z" fill="#F29C62"/>
<path d="M159.113 37.5229C168.819 37.5229 176.687 29.6569 176.687 19.9537C176.687 10.2505 168.819 2.38452 159.113 2.38452C149.407 2.38452 141.539 10.2505 141.539 19.9537C141.539 29.6569 149.407 37.5229 159.113 37.5229Z" fill="#F29C62"/>
</svg>
