<svg xmlns="http://www.w3.org/2000/svg" viewBox="0 0 300 219.7" class="home__graphic"><path d="M14.8,30.4l-1.2,73.3L38.5,123s-1.8,12.3,3.7,14.8,8,2.4,10.7-1.9l13.3,8.5,1.7-2.9,32.4,19.3,5.5-1.1s-2.6,2.4,3.9,4.8,23.9,11.8,23.9,11.8,7.3,2.9,8.6,2.1,5.1.6,5.1.6-1.7,13.9,5.8,19.6,11.5,10.8,19.9,8.1,10.9-12.8,11-14,12.2,6.7,12.2,6.7,10.4,5.9,26.8,4.1,50.2-8.7,50.2-8.7l.3-3.6,6.4-1s7.7-6.4,6.3-15.6-.5-5.2-.5-5.2l-3.8-1.7-.4-27.8-.8-5.1s-.6-4-8.6-7.5-19.3-8.8-19.3-8.8-2.6,1.9-3.5,1a46.4,46.4,0,0,1-3.1-4.6l7.1-.4.7-4.1s3-9,1.4-12.4a2.6,2.6,0,0,0-2.7-2.3l-3.1.3-3,14.2,4.8.6-.3,2.3-6.3-.7s-19-32.7-27-34.7l48,2.5s10.7-2.7,9.6-9.8-10-29.2-10-29.2,1-3.5-12.1-5.2c0,0-69.9-18.4-102.7-20.7l-41.6-3L72.2,19.1s.9-3-7.6-2.9-12.4,3.2-11.4,5.3S14.8,30.4,14.8,30.4Z" style="fill:#862267"/><path d="M227.8,149l48.1-4.7,4.8-9.5,1.2,32.9,3.8,1.7.5,5.2-5.8,4.5-39.1,8.1-15.4.5-15.5-1.1s-11.1.2-19.6-3.8-10.7-4.6-10.7-4.6l.7-10.5,10.4,3.7s-.2-13.6,2.5-23.7c0,0,0-5.1,5.7-3.9Z" style="fill:#4c193c"/><path d="M180.1,178.2l1.1,9.5,21.2,9.8s8.6,3,24.6,1.8,49.9-8.7,49.9-8.7a16.6,16.6,0,0,0,9.3-16l-5.8,4.5-39.1,8.1s-11,1-17.3.6-20.1-1-24.3-1.8S180.1,178.2,180.1,178.2Z" style="fill:#f29c62"/><path d="M253.1,188.3l-1.6,7.4s-.7,1.6.9,1.1l10.7-2.6a2.2,2.2,0,0,0,2.3-1.6l1.9-7.9s1.1-.4-1.5-.1L255,186.3A1.6,1.6,0,0,0,253.1,188.3Z" style="fill:#e43f65"/><path d="M153,179.8s2.3-11.6,7.5-10.7,8.6,8.1,8.6,8.1,4.6,8.2.2,18.9-13-1-13-1S152.1,191,153,179.8Z" style="fill:#a63384"/><path d="M44.7,114.4s-3.1-.8-4,8.7,2.5,12.4,2.5,12.4,3,.8,3.8-4.8S49,115.6,44.7,114.4Z" style="fill:#a63384"/><path d="M15.5,101l21.2,17.4.7-9.8s.7-2.8,3-1.6l2.3,1.3s2.5.7,2.3,4.8-.1,12.5-.1,12.5l6.8,3.7a3.4,3.4,0,0,0,1.5,3.1l13.3,8.4,1.7-2.8,30.5,17.7,5.6-92.6,47.6,5.2s8.5-4.7,6.7-12.6-9.1-34.9-9.1-34.9.4-3.5-13.9-3.8-27.4-.9-27.4-.9L16.6,33.2Z" style="fill:#e43f65"/><path d="M154.1,79.2l12.7,40.7s78.5,4.6,82.5-.4c0,0-22.3-36.2-28.1-38.2C221.2,81.3,156.1,73.2,154.1,79.2Z" style="fill:#4c193c"/><path d="M128.6,71s-14.9,20.4-16.3,84.6l30.1,15.7s4.7-22.7,14.6-20.4,16.8,13.5,16.8,13.5l6.1,2.4,10.4,3.6s1-27.1,4.6-27.3a39.3,39.3,0,0,1,8.7.7s1.2-7.6-5.4-10.9-24.4-14.6-24.4-14.6l-7.9.6L153.1,78.3S151.8,75,147,74,128.6,71,128.6,71Z" style="fill:#e43f65"/><path d="M146.8,112.8l-22.7-5.9s7-28.4,10.3-30.5l12.1,2.5s3.9.5,5.5,6.4S155.9,97,155.9,97l-2.4,6S146.8,106.2,146.8,112.8Z" style="fill:#4c193c"/><path d="M155.9,97l-2.4,6s-7.2,2.3-6.7,9.8l-19.9.7v-2.2l4.8.4s.6,1.8.9-2.6.7-13.8.7-13.8.7-3.3-3.5-3.4a50.9,50.9,0,0,1-7-.6s-2.4-.8-3.4,3.3-1,13.7-1,13.7-1.4,2.3,1.3,2.5l4,.3-.3,4,24.4.8,4.4.5,2.1.9,4-11.5Z" style="fill:#f29c62"/><path d="M246.6,110.2l3-14.2s3.4,2.1,2.6,8.5l-.8,6.3Z" style="fill:#f29c62"/><path d="M152.1,18.1,162,57.7s-1.6,12.1-7.4,13.6l111.2,8.9s7.1-4.8,6.4-9.4-8.6-28.7-8.6-28.7.8-3.2-10.3-4.5S181.1,18.3,152.1,18.1Z" style="fill:#a63384"/><path d="M227,157.6l.5-6.6-33.1-5.2-.7,9.3S206.8,158.8,227,157.6Z" style="fill:#f29c62"/><path d="M226.3,167.6s-29.2-3.4-33.1-4.9l-.5,6.1s28,3.7,33.3,2.5S226.3,167.6,226.3,167.6Z" style="fill:#f29c62"/><polygon points="275 159.4 274.6 165.5 279.5 159.8 279.8 155.8 275 159.4" style="fill:#f29c62"/><path d="M275.1,144l.4,8.8,4.8-3.3s-.6-9.6-1.6-9.7S275.1,144,275.1,144Z" style="fill:#f29c62"/><g style="opacity:0.8"><path d="M258.8,192.6h.4c.1.1.1.1.1.2h0l-.2.2h-1V193l.2-.3Zm1.7-4.5h1.2l.4.3a.4.4,0,0,1,.1.5,1.1,1.1,0,0,1-.3.8,2.4,2.4,0,0,1-.8.6l-.8.4-.7.2-.2.7c0,.1-.1.1-.1.2l-.2.2h-.7l.4-1.3v-.2h.5l.8-.3.7-.4.2-.2c0-.1.1-.1.1-.2l.2-.3a.4.4,0,0,1,.1-.3v-.2c0-.1-.1-.1-.1-.2H260l-.4.2-.2.2v.4h-.5l-.3-.2v-.3a.5.5,0,0,1,.3-.4l.6-.3.7-.2Z" style="fill:#f29c62"/></g><path d="M51.7,85.6a4.5,4.5,0,0,1,2.4.6A1.7,1.7,0,0,1,55,88a3.1,3.1,0,0,1-.5,1.2l-1,1.1a7.1,7.1,0,0,1-1.5.8,5.1,5.1,0,0,1-1.7.3,3.9,3.9,0,0,1-2.5-.7,1.6,1.6,0,0,1-.9-1.7,3.6,3.6,0,0,1,1.3-2.3A4.9,4.9,0,0,1,51.7,85.6ZM64.2,47.5l3.2.3a13.5,13.5,0,0,1,3.5,1.4A7.6,7.6,0,0,1,73.4,52a6.3,6.3,0,0,1,.7,4.2,15.9,15.9,0,0,1-2.6,7.1,21.7,21.7,0,0,1-4.6,4.9,23.7,23.7,0,0,1-5.3,3,16.6,16.6,0,0,1-4.3,1.3l-1.4,5.8a6.7,6.7,0,0,1-.7,1.8A4,4,0,0,1,54,81.7a5.4,5.4,0,0,1-1.8,1.1,9.5,9.5,0,0,1-2.5.3l2.8-11.3a3.8,3.8,0,0,1,.9-1.5,7,7,0,0,1,2.7-1.1A15.4,15.4,0,0,0,61,67.7a11.2,11.2,0,0,0,4.5-3.4,9.8,9.8,0,0,0,1.2-1.5l1.1-2a21.4,21.4,0,0,0,1-2.2,20.5,20.5,0,0,0,.5-2.4,6.7,6.7,0,0,0,0-2,5.1,5.1,0,0,0-.9-1.8,5.2,5.2,0,0,0-1.9-1.2,12.1,12.1,0,0,0-3-.4,8.6,8.6,0,0,0-2.8.4,7.8,7.8,0,0,0-2.2,1.2,8.5,8.5,0,0,0-1.6,1.7,5.3,5.3,0,0,0-.7,2v1.2a4.4,4.4,0,0,0,.2,1,2.4,2.4,0,0,0,.6.9c-1.7.4-2.9.5-3.7.1A3.1,3.1,0,0,1,51.5,58a5,5,0,0,1-.5-2.6,5.8,5.8,0,0,1,1.9-3.6,13.6,13.6,0,0,1,3.6-2.5,19.8,19.8,0,0,1,4.1-1.4A17.1,17.1,0,0,1,64.2,47.5Z" style="fill:#f29c62"/><g style="opacity:0.8"><path d="M63.2,103a2.9,2.9,0,0,1,1.7.4,1.1,1.1,0,0,1,.7,1.1,1.1,1.1,0,0,1-.3.8,2.4,2.4,0,0,1-.6.8,2.1,2.1,0,0,1-1,.6,2.7,2.7,0,0,1-1.2.3,3.1,3.1,0,0,1-1.7-.3,1.3,1.3,0,0,1-.7-1.1,2.7,2.7,0,0,1,.8-1.7A3.7,3.7,0,0,1,63.2,103Zm7-26.5h2.2a11.3,11.3,0,0,1,2.4.8,5.4,5.4,0,0,1,1.9,1.8,4.3,4.3,0,0,1,.6,2.9A10.1,10.1,0,0,1,75.8,87a12.6,12.6,0,0,1-2.9,3.5,14,14,0,0,1-3.5,2.3,13.6,13.6,0,0,1-2.9,1.1l-.7,4a9.3,9.3,0,0,1-.4,1.3,2.6,2.6,0,0,1-.7,1.1,3.6,3.6,0,0,1-1.2.8,4.7,4.7,0,0,1-1.7.3l1.4-7.8a2.4,2.4,0,0,1,.6-1.1,3.8,3.8,0,0,1,1.8-.8,21.9,21.9,0,0,0,3.3-1.2A9.7,9.7,0,0,0,71.8,88l.7-1.1c.2-.5.5-.9.7-1.5a8.8,8.8,0,0,0,.5-1.5,5.1,5.1,0,0,0,.3-1.7,3.4,3.4,0,0,0-.1-1.4,2.6,2.6,0,0,0-.7-1.1,3.2,3.2,0,0,0-1.3-.7,6.8,6.8,0,0,0-2.1-.2,4.8,4.8,0,0,0-1.8.4l-1.5.9a6.4,6.4,0,0,0-1,1.3,2.2,2.2,0,0,0-.4,1.3v.8c.1.2.1.5.2.7l.5.6a6.8,6.8,0,0,1-2.6.3,1.9,1.9,0,0,1-1.2-.9,2.9,2.9,0,0,1-.5-1.7,5,5,0,0,1,1.1-2.6A10.8,10.8,0,0,1,65,78.1a15.9,15.9,0,0,1,2.7-1.2A14.1,14.1,0,0,1,70.2,76.5Z" style="fill:#f29c62"/></g><g style="opacity:0.8"><path d="M43.7,76a1.3,1.3,0,0,1,.9.1.5.5,0,0,1,.4.6.9.9,0,0,1-.1.5l-.3.4-.5.4-.7.2h-.9a.7.7,0,0,1-.4-.6,1.9,1.9,0,0,1,.3-1A1.7,1.7,0,0,1,43.7,76Zm3-14.9h1.2l1.3.4a2.4,2.4,0,0,1,1.1.9,2.5,2.5,0,0,1,.5,1.6,7.7,7.7,0,0,1-.7,2.7,8,8,0,0,1-1.5,2.1,6.8,6.8,0,0,1-1.8,1.3l-1.6.7L44.9,73a2.2,2.2,0,0,1-.1.8,2.1,2.1,0,0,1-.4.6l-.6.5-1,.2.6-4.3a.6.6,0,0,1,.3-.6,1.3,1.3,0,0,1,.9-.5l1.8-.8a5.4,5.4,0,0,0,1.5-1.5l.4-.6.3-.8.3-.9c0-.3.1-.6.1-.9a2.4,2.4,0,0,0-.2-.8c0-.2-.2-.4-.4-.6a.8.8,0,0,0-.7-.3H46.5l-1,.3A6,6,0,0,0,44.2,64a1.7,1.7,0,0,0-.1.7v.8q.1.3.3.3a2.1,2.1,0,0,1-1.4.3c-.3-.1-.6-.2-.7-.5a1.2,1.2,0,0,1-.3-.9,2.4,2.4,0,0,1,.5-1.4,6.9,6.9,0,0,1,1.3-1.1,3.7,3.7,0,0,1,1.4-.7Z" style="fill:#f29c62"/></g><g style="opacity:0.8"><path d="M57.4,96.9h.5c.2.1.2.2.2.3a.4.4,0,0,1-.1.3c0,.1-.1.1-.2.2s-.1.1-.3.2h-.8c-.2-.1-.2-.2-.2-.4a.8.8,0,0,1,.2-.4A.9.9,0,0,1,57.4,96.9Zm2-7.9h.7c.3.1.5.1.7.3l.6.5a1.9,1.9,0,0,1,.2.8,3.3,3.3,0,0,1-.5,1.5,4.4,4.4,0,0,1-.8,1.1,3,3,0,0,1-1.1.6l-.8.4-.2,1.1a.8.8,0,0,0-.1.4l-.3.4-.3.2H57l.4-2.3c0-.1.1-.3.2-.3l.5-.3,1-.4a1.8,1.8,0,0,0,.8-.7c.1-.1.2-.2.2-.3l.3-.5v-.4a.9.9,0,0,0,.1-.5v-.4l-.2-.4-.4-.2H58.8l-.4.3q-.3.2-.3.3l-.2.4a.4.4,0,0,0,.1.3v.2h.1a.6.6,0,0,1-.7.1l-.4-.2a.7.7,0,0,1-.1-.5,1.1,1.1,0,0,1,.3-.8,1.8,1.8,0,0,1,.7-.5l.8-.4Z" style="fill:#f29c62"/></g></svg>
