<svg xmlns="http://www.w3.org/2000/svg" viewBox="0 0 1007.4 720.9" class="home__graphic"><path d="M4.5,67,0,337.7l91.7,71.5s-6.7,45.2,13.8,54.6,29.5,8.8,39.6-7.1l49,31.5,6.3-10.7,119.7,71.3,20.4-4s-9.6,8.8,14.3,17.5S443,605.9,443,605.9s27.1,10.9,31.8,7.9,18.8,2.2,18.8,2.2-6.1,51.2,21.4,72.2,42.7,40,73.6,30,40.3-47.2,40.6-51.6,45.1,24.5,45.1,24.5,38.5,21.8,99.2,15.2,185.3-32,185.3-32l1-13.3,23.7-3.9s28.5-23.5,23.2-57.3-1.9-19.2-1.9-19.2l-14-6.6-1.3-102.7-2.8-18.5s-2.3-14.9-32.1-27.8-71.1-32.6-71.1-32.6-9.9,6.9-13,3.8-11.4-17-11.4-17l26.2-1.4,2.4-15.2s11.2-33.3,5.4-45.7c0,0-.7-8.8-10-8.8l-11.5,1.1-11.2,52.7,17.9,2-1.3,8.6-23.2-2.4s-70-120.8-99.5-128.4l177.2,9.1s39.4-9.7,35.4-36.1S930.1,107,930.1,107s3.6-13.1-44.7-19.3c0,0-258.4-68-379.4-76.3L352.4,0,216.2,25.3s3.5-11.1-28-10.7-45.7,12-42.2,19.6S4.5,67,4.5,67Z" style="fill:#862267"/><path d="M791.2,505.1l177.7-17.5,17.8-34.8L990.8,574l14,6.6,1.9,19.2-21.2,16.5L840.9,646.4l-57,1.8-57.2-4.3s-40.8,1-72.5-14-39.5-17-39.5-17l2.9-38.6L656,587.8s-.9-50.1,9.2-87.5c0,0,0-18.7,21.1-14.4S791.2,505.1,791.2,505.1Z" style="fill:#4c193c"/><path d="M614.7,612.9l4.4,35,78.3,36.2s31.7,11.4,90.6,6.7,184.4-31.9,184.4-31.9,36.2-15.6,34.3-59.1l-21.2,16.5L840.9,646.4s-40.6,3.6-64,1.9c-21.2-1.6-74.1-3.5-89.5-6.7C669.9,638,614.7,612.9,614.7,612.9Z" style="fill:#f29c62"/><path d="M884.4,650.3l-5.8,27.2s-2.7,5.9,3.4,4.4l39.5-9.8s7,.2,8.5-6.1,7.1-28.9,7.1-28.9,3.8-1.7-5.6-.4-39.9,6.1-39.9,6.1S884,641.9,884.4,650.3Z" style="fill:#e43f65"/><path d="M514.6,618.9s8.6-43,27.8-39.5,31.8,29.9,31.8,29.9,17.2,30.3.8,69.7-47.9-3.5-47.9-3.5S511.5,660.3,514.6,618.9Z" style="fill:#a63384"/><path d="M114.9,377.4s-11.7-3-14.8,31.9,9,46,9,46,11.1,3,14.3-17.8S130.8,381.9,114.9,377.4Z" style="fill:#a63384"/><path d="M6.7,328l78.4,64,2.7-36.2s2.7-10.4,11.2-5.7l8.4,4.7s9.1,2.7,8.6,17.7-.4,46.3-.4,46.3l24.9,13.7s-.7,7.5,5.5,11.5l49.1,30.7,6.3-10.4,112.8,65.6,20.5-342L510.6,207s31.4-17.2,24.8-46.6S501.9,31.5,501.9,31.5s1.3-12.9-51.3-14-101.3-3.4-101.3-3.4L10.8,77.4Z" style="fill:#e43f65"/><path d="M518.7,247.4l47.1,150.1s290,17.2,304.7-1.3c0,0-82.4-133.9-103.9-141.3C766.6,254.9,526.3,225,518.7,247.4Z" style="fill:#4c193c"/><path d="M424.7,217.1s-55.2,75.1-60.2,312.5l111.2,57.8s17.3-83.8,53.7-75.2S591.6,562,591.6,562l22.5,8.8,38.5,13.4s3.8-100.1,17-101,32.2,2.7,32.2,2.7,4.2-28-20.1-40.2-90-54-90-54l-29.3,2.2L515.2,243.8s-5-12.2-22.5-15.7S424.7,217.1,424.7,217.1Z" style="fill:#e43f65"/><path d="M491.7,371.3l-83.5-21.8s25.5-104.7,38-112.7l44.4,9.3s14.6,1.8,20.4,23.7a413.8,413.8,0,0,0,14.7,43.3l-9.1,22.3S492,346.9,491.7,371.3Z" style="fill:#4c193c"/><path d="M525.7,313.1l-9.1,22.3s-26.5,8.4-24.9,35.9L418.2,374l.6-8.1,17.7,1.3s2,6.8,3.4-9.4,2.5-50.9,2.5-50.9,2.4-12.4-13.1-12.8a223.3,223.3,0,0,1-25.8-2s-8.8-3.2-12.5,12.1-3.8,50.7-3.8,50.7-5.2,8.3,5.1,9L407,365l-1.1,14.7,90.2,3,16.1,2,7.9,3.5,14.8-42.7Z" style="fill:#f29c62"/><path d="M860.4,361.9l11.2-52.7s12.7,8.1,9.7,31.4l-3,23.3Z" style="fill:#f29c62"/><path d="M511.5,21.7l36.6,146s-6,44.7-27.5,50.5l410.9,32.6s26.2-17.6,23.5-34.5-31.6-105.9-31.6-105.9,2.9-11.9-38.2-16.9S618.5,22.2,511.5,21.7Z" style="fill:#a63384"/><path d="M788.2,536.9l1.9-24.6L667.7,493.4l-2.5,34.4S713.7,541.3,788.2,536.9Z" style="fill:#f29c62"/><path d="M785.5,573.9s-108-12.6-122.4-18.1l-1.6,22.4s103.3,13.7,123,9.1S785.5,573.9,785.5,573.9Z" style="fill:#f29c62"/><polygon points="965.5 543.6 963.8 566.2 982.1 544.8 983.2 530.2 965.5 543.6" style="fill:#f29c62"/><path d="M965.7,486.8l1.6,32.2L985,506.9s-2.1-35.5-5.7-35.8S965.7,486.8,965.7,486.8Z" style="fill:#f29c62"/><g style="opacity:0.8"><path d="M905.4,666l1.5.2c.5.2.7.4.6.7a.8.8,0,0,1-.2.5l-.6.5-.9.4-1.1.2a2.4,2.4,0,0,1-1.5-.2q-.6-.1-.6-.6c0-.4.3-.7.7-1.1A5.3,5.3,0,0,1,905.4,666Zm6.6-16.5a6.7,6.7,0,0,1,2,0,7.9,7.9,0,0,1,2.2.5,3.4,3.4,0,0,1,1.6,1,2.1,2.1,0,0,1,.5,1.8,4.9,4.9,0,0,1-1.4,3,8.7,8.7,0,0,1-2.7,2.3,17.7,17.7,0,0,1-3.1,1.5l-2.6.7-.7,2.5-.3.8a2.3,2.3,0,0,1-.7.7l-1.1.5a4.1,4.1,0,0,1-1.6.2l1.5-4.8c0-.3.2-.5.5-.7a3.7,3.7,0,0,1,1.6-.5,17.1,17.1,0,0,0,3-.9,8,8,0,0,0,2.6-1.6l.7-.7a3.5,3.5,0,0,0,.6-.9,4.1,4.1,0,0,0,.5-.9,2.2,2.2,0,0,0,.3-1,1.6,1.6,0,0,0-.7-1.6l-1.2-.4h-1.8a4.7,4.7,0,0,0-1.7.3l-1.3.6a2.4,2.4,0,0,0-.9.8.9.9,0,0,0-.4.8v.5c.1.1.1.3.2.4a.8.8,0,0,0,.4.4,6.8,6.8,0,0,1-2.3.2,2.3,2.3,0,0,1-1.1-.5,1.4,1.4,0,0,1-.4-1.1,2.6,2.6,0,0,1,1-1.6,9,9,0,0,1,2.2-1.1,10.4,10.4,0,0,1,2.5-.8Z" style="fill:#f29c62"/></g><path d="M103.8,311s35.5,17.1,45.9,2.8-16.8-43.1-16.8-43.1-17.8-15.4-32.7-3.7c0,0-3.1-16.9-9.7-21.1-4.9-3.1-9.5-3.4-16.4-2.9s-16,12.2-24.1,5.7-3.4-7.9-7.6-16c-5.1-9.9-20.6-8.1-20.6-8.1s15.4,3.6,17.4,8.8-4.1,17,8.6,24.2,26.1-4.2,32.6-2.3,10.1,10.2,9.8,24.4C90.2,279.7,84.9,300.7,103.8,311Z" style="fill:#a63384"/><path d="M232.1,350.3s60,28.9,77.5,4.7-28.3-72.7-28.3-72.7-30-25.8-55.1-6.1c0,0-5.3-28.7-16.4-35.7-8.4-5.2-16.1-5.8-27.7-4.9s-27.1,20.6-40.8,9.6-5.7-13.2-12.7-27c-8.6-16.7-34.8-13.6-34.8-13.6s26,6.1,29.3,14.9c3.9,10.3-6.9,28.6,14.6,40.7s44-7,55-3.9,17,17.4,16.5,41.3C209.2,297.6,200.3,332.9,232.1,350.3Z" style="fill:#a63384"/><path d="M165.3,168s38.4,31.3,25.9,51.3-57.5-.8-57.5-.8-35-16.6-23-35.1c0,0-7.7-4.7-12-9.6-9.6-11.2,1.6-26.9-3.9-30.7s-16.4,18.4-31,14.7-21.4-10.9-19-24.3c.8-4.1,3-7.7,9.8-9.1,4.4-.9,8.1,3,8.1,3,2.4,2.4,3.7,4.8,3.1,7.3-1.6,7.3-8.9,2.4-8.9,2.4s7.6,1.6,6.6-4c-.7-3.7-2.7-4-5.7-4.5-5-.8-7.1,2.3-7.8,5-1.4,5.1,8.5,31.7,33.3,3,6.4-7.4,12.3-9.7,18.7-5.4,14.6,10,.5,24.7,6,31.8s9.1,6.6,13.6,1.3S143.1,149.9,165.3,168Z" style="fill:#a63384"/><path d="M205.8,278.3s45.2,42.4,27.9,66.2-71.6-5.9-71.6-5.9-36.1-16.5-25.3-46.1c0,0-28.5,3.9-38.5-4.4-7.4-6.2-10.3-13.2-13.1-24.4s10.9-31.6-3.6-41.1-14.1-1.2-29.1-3.6C34.1,216.1,29,190.6,29,190.6s13.7,22.5,22.9,22.9c10.9.4,24.7-15.3,42.7,1.1s6.9,43.4,13.3,52.7,21.4,10.5,43.7,2.7C151.6,270,179.7,253.9,205.8,278.3Z" style="fill:#f29c62"/><path d="M232.1,270.2s60,28.9,77.5,4.7-28.3-72.7-28.3-72.7-30-25.9-55.1-6.2c0,0-5.3-28.6-16.4-35.6-8.4-5.2-16.1-5.8-27.7-4.9S155,176,141.3,165s-5.7-13.2-12.7-26.9c-8.6-16.8-34.8-13.6-34.8-13.6s26,6,29.3,14.8c3.9,10.4-6.9,28.7,14.6,40.8s44-7.1,55-4,17,17.4,16.5,41.3C209.2,217.4,200.3,252.7,232.1,270.2Z" style="fill:#f29c62"/><path d="M165.3,197.2s38.4,31.4,25.9,51.4-57.5-.8-57.5-.8-35-16.6-23-35.1c0,0-7.7-4.7-12-9.7-9.6-11.1,1.6-26.8-3.9-30.7s-16.4,18.4-31,14.8-21.4-10.9-19-24.3c.8-4.2,3-7.8,9.8-9.2,4.4-.9,8.1,3.1,8.1,3.1,2.4,2.4,3.7,4.7,3.1,7.3-1.6,7.3-8.9,2.4-8.9,2.4s7.6,1.6,6.6-4c-.7-3.7-2.7-4-5.7-4.5-5-.8-7.1,2.3-7.8,5-1.4,5.1,8.5,31.7,33.3,2.9,6.4-7.3,12.3-9.6,18.7-5.3,14.6,10,.5,24.7,6,31.8s9.1,6.6,13.6,1.2S143.1,179.1,165.3,197.2Z" style="fill:#f29c62"/></svg>
