<svg xmlns="http://www.w3.org/2000/svg" viewBox="0 0 300 75.6" class="home__graphic"><polygon points="281.5 69.2 270.8 63 249.3 58.3 244.1 47.7 234.8 49.4 224.8 35.9 208.8 39.1 184.9 22.8 178.4 25.9 170.1 22.8 155.9 39.7 151.7 32.5 137.5 55.2 130.6 46.3 126.7 54.1 105 27.2 96.9 14.9 96.9 0 89.7 4.8 83.9 0 63.2 25 49.3 20.2 40.6 41 32.5 38.3 28 54.6 9.3 61.8 0 71.4 159.8 75.6 154.2 71.1 281.5 69.2" style="fill:#862267;fill-rule:evenodd"/><polygon points="200.7 69.4 196.6 66.5 188.3 64.2 186.3 59.2 182.7 60 178.8 53.6 172.6 55.1 163.4 47.4 160.9 48.8 157.7 52 154.1 55.8 152.2 55.4 150.2 57.7 139.6 49.7 130.3 34.3 115.5 37.9 93.4 19.3 87.3 22.9 79.6 30.4 70.9 39.5 69.7 35.5 66.5 38.7 62.6 30.4 47.9 59.4 43.7 53.7 30.9 65.1 12.6 75.4 182.9 72.2 179.4 69.8 200.7 69.4" style="fill:#a63485;fill-rule:evenodd"/><polygon points="300 72.2 290.1 65.1 270.2 59.8 265.4 47.8 256.7 49.7 247.4 34.3 232.7 37.9 210.5 19.3 204.4 22.9 196.7 30.4 188.1 39.5 186.8 35.5 183.6 38.7 179.8 30.4 165 59.4 160.8 53.7 148 65.1 146.8 65.8 144.2 60.4 139.3 61.4 134 53.9 125.5 55.6 112.8 46.6 104.9 46.6 104.9 52 100 56.4 97.4 56 95.2 52 84.4 63.3 77 68.9 66.6 73.9 134.3 72.8 129.7 75.4 300 72.2" style="fill:#862267"/><polygon points="196.6 68.3 208.2 55 221.1 60.9 227.6 48.5 249.3 60.2 273.3 73.8 182.9 74.1 196.6 68.3" style="fill:#a63485;fill-rule:evenodd"/></svg>
