<svg xmlns="http://www.w3.org/2000/svg" viewBox="0 0 300 94.2" class="home__graphic"><polygon points="277.5 83.4 267.1 77.4 246.3 72.9 241.2 62.6 232.2 64.3 222.4 51.2 207 54.3 183.9 38.5 177.5 41.5 169.4 38.5 155.7 54.9 151.7 47.9 137.9 69.9 131.2 61.3 127.4 68.8 106.4 42.7 98.5 30.9 98.5 16.4 91.5 21 86 16.4 65.9 40.7 52.4 36 44 56.1 36.1 53.6 31.7 69.3 13.7 76.3 4.6 85.6 159.5 89.7 154 85.3 277.5 83.4" style="fill:#862267;fill-rule:evenodd"/><polygon points="199.1 83.7 195.1 80.8 187.1 78.7 185.1 73.8 181.6 74.6 177.9 68.4 171.9 69.8 163 62.3 160.5 63.7 157.4 66.8 153.9 70.4 152.1 70.1 150.2 72.3 139.9 64.6 130.9 49.7 116.6 53.1 95.1 35.1 89.2 38.6 81.8 45.9 73.4 54.7 72.1 50.8 69 53.9 65.3 45.9 51 74 47 68.4 34.5 79.5 16.8 89.5 181.8 86.4 178.5 84 199.1 83.7" style="fill:#a63485;fill-rule:evenodd"/><polygon points="295.4 86.4 285.7 79.5 266.5 74.4 261.8 62.7 253.4 64.6 244.4 49.7 230.1 53.1 208.7 35.1 202.8 38.6 195.3 45.9 186.9 54.7 185.7 50.8 182.6 53.9 178.8 45.9 164.5 74 160.5 68.4 148.1 79.5 146.9 80.2 144.4 75 139.6 75.9 134.4 68.6 126.3 70.3 114 61.6 106.3 61.6 106.3 66.8 101.5 71.1 99 70.7 96.9 66.8 86.4 77.8 79.3 83.2 69.1 88 134.8 87 130.4 89.5 295.4 86.4" style="fill:#862267"/><polygon points="195.1 82.6 206.4 69.7 218.9 75.4 225.2 63.4 246.3 74.7 269.5 87.9 181.8 88.2 195.1 82.6" style="fill:#a63485;fill-rule:evenodd"/></svg>
