<svg xmlns="http://www.w3.org/2000/svg" viewBox="0 0 400 144.5"><path d="M125.7,117.4H115.2c-7.4-1.5-22.7-2.5-40.5-2.5-24.9,0-45,2-45,4.5,0,.3.2.5.6.7-4.9.8-7.8,1.6-7.8,2.6s.4.6,1.1.9c-6.6.9-10.5,2.1-10.5,3.4,0,2.9,18.7,5.1,41.7,5.1,16.5,0,30.7-1.1,37.5-2.8,9.4.8,21,1.2,33.4,1.2,31.7,0,57.3-2.9,57.3-6.6S157.4,117.4,125.7,117.4Z" style="fill:#862267"/><path d="M80.4,124.7a17.5,17.5,0,0,1-5.2-.8v-.4c.1.1,6.9,2.5,12-1.3h.2c.1,0,7.2,1.7,12.8-1.4h.1c.1,0,6,1.4,8.7-.9l.3.3c-2.8,2.3-8.2,1.2-9,1-5.4,3-12,1.6-12.9,1.4A11.7,11.7,0,0,1,80.4,124.7Z" style="fill:#a63384"/><path d="M122.9,127.2h-1.3a22.4,22.4,0,0,1-5.3-1v-.4c.1,0,8.9,3.2,15.4-1.7h.2c.1,0,9.1,2.2,16.3-1.8h.2a18.4,18.4,0,0,0,4.2.5c2.1.1,5-.1,6.9-1.7l.2.4c-3.5,2.9-10.5,1.4-11.3,1.2-7,3.8-15.5,2-16.5,1.8A15.1,15.1,0,0,1,122.9,127.2Z" style="fill:#a63384"/><path d="M39.9,125.2a15.8,15.8,0,0,1-5.2-.9v-.4c.1.1,6.9,2.5,12-1.3H47c.1,0,7.2,1.7,12.8-1.4h.1c.1,0,6,1.4,8.7-.9l.3.3c-2.8,2.3-8.2,1.2-9,1-5.4,3-12,1.6-12.9,1.4A11.8,11.8,0,0,1,39.9,125.2Z" style="fill:#a63384"/><path d="M69,134.4s6.7-71.5.2-110c-1.4-8.3-21.4,4.7-21.4,4.7,5.9-6.5,22.7-6.5,23.8-3.2,8.2,25.1,0,108.5,0,108.5Z" style="fill:#a63384"/><path d="M16,18.6a2.5,2.5,0,0,1,.2-.7,6.5,6.5,0,0,1,5.4-5.2h.3l-1.1-10,2.1-.2c.1,1,.2,2,.4,3s.5,4.7.7,7c0,.4.3.4.5.5A6.1,6.1,0,0,1,29,17.9c.3,1.4.3,2.8.5,4.2s.5,5.2.8,7.9.5,5,.8,7.6.5,5.2.8,7.8.5,5.1.8,7.6.5,5.3.8,7.9.5,5.1.7,7.7.5,3.6.6,5.3A6.5,6.5,0,0,1,31.6,80c-.3.2-.3.4-.3.7.2,2.1.4,4.2.7,6.3s.5,5,.8,7.4l.9,8.5c.2,2.4.5,4.9.8,7.3s.6,5.6.8,8.4.7,5.6.9,8.4l.6,5.3c0,.2.1.3.2.5,2.2-17.3,4.3-34.6,6.5-51.8L42,80.7a6.6,6.6,0,0,1-4.7-7.4c.4-3.1.7-6.1,1.1-9.2s.7-6,1.1-9,.7-6,1.1-9,.7-5.4,1-8.1.7-6,1.1-9l1.2-9.1a16,16,0,0,1,.3-2.3,6.5,6.5,0,0,1,7.2-4.8h.7L53.4,2.5l2.1.2c-.1,1.1-.3,2-.4,3-.3,2.6-.6,5.2-1,7.8a.7.7,0,0,0,.3.5A6.7,6.7,0,0,1,57,20.6c-.6,4.1-1,8.3-1.5,12.5s-1.1,8.3-1.6,12.4L52.4,58c-.5,4.4-1.1,8.9-1.7,13.3-.1,1.4-.3,2.8-.5,4.2a6.1,6.1,0,0,1-4,4.9,1,1,0,0,0-.6.8c-.5,4.5-1.1,8.9-1.7,13.4S42.6,105,42,110.1s-1.5,12.1-2.3,18.1-1.2,9.3-1.7,14c-.1.3-.2.5-.5.4H35.8L29.2,81l-2.1-.2a6.5,6.5,0,0,1-5.4-5.9c-.3-3.2-.7-6.5-1-9.8s-.5-5.1-.8-7.7L19,48.6c-.3-2.5-.5-5.1-.8-7.7s-.5-5.1-.8-7.7l-.9-8.7c-.1-1.5-.3-2.9-.4-4.4s-.1-.2-.1-.3Z" style="fill:#862267"/><path d="M67.3,68.6,67,70.7c-.5,4.2-1,8.5-1.6,12.7s-.8,7.1-1.3,10.7-.9,7.2-1.3,10.7l-.3,2.5a4.4,4.4,0,0,1-4.2,3.4.6.6,0,0,0-.5.5c-.7,4.8-1.3,9.7-2,14.6s-1,7.3-1.6,10.9c-.2,1.8-.5,3.6-.7,5.4v.2l-2-.2c.1-.7.1-1.4.2-2.1.8-5.3,1.5-10.5,2.2-15.8s1.3-9.1,1.9-13.7c.1-.1,0-.4-.2-.5a4.6,4.6,0,0,1-1.9-4.6l1.5-11.9,1.5-12.4,1.2-9.9c.2-1.3.3-2.6.6-3.9a4.3,4.3,0,0,1,3.4-3.4c.4-.1.5-.2.6-.6l1.2-9c.1-.1.1-.1.1-.2l2.1.3a28.9,28.9,0,0,0-.4,2.9l-.9,6.4a1.1,1.1,0,0,0,.2.5,4.5,4.5,0,0,1,2.5,3.7h.1Z" style="fill:#862267"/><path d="M31.3,143.7s-7.6-68.6,15-81.3c-4.6,8-15.2,3.8-13.3,81.3Z" style="fill:#862267"/><path d="M13.1,144.7s-.2-64.2,10-74.2c-6,13.3-7.7,39.9-7.1,74.2Z" style="fill:#862267"/><path d="M63.5,144.7s6.7-71.4.1-109.9c-1.4-8.3-21.3,4.7-21.3,4.7,5.8-6.6,22.6-6.6,23.7-3.2,8.2,25.1,0,108.4,0,108.4Z" style="fill:#862267"/><path d="M84.7,142.7s9.5-15.8,5.9-19.1c0,0,1.3,3.7-1.8,9.3s-5.1,9.2-5.1,9.2Z" style="fill:#a63384"/><path d="M76.3,144.5s7.6-12.4,4.3-15.3c0,0,1.3,3-1.1,7.5L75.4,144Z" style="fill:#862267"/><path d="M73.7,144s8.7-15.3,11.5-14.8c0,0-2.6,1.2-5.8,6.5l-5.2,8.6Z" style="fill:#862267"/><path d="M80.6,144s8.7-15.3,11.5-14.8c0,0-2.6,1.2-5.8,6.5l-5.2,8.6Z" style="fill:#862267"/><path d="M73.7,141.9s8.8-15.2,11.6-14.7c0,0-2.6,1.2-5.8,6.4l-5.2,8.6Z" style="fill:#a63384"/><path d="M70,130l-5.4,10.9,5.1-.3A97.1,97.1,0,0,1,70,130Z" style="fill:none"/><path d="M73.5,140.3l3.8-.2c-.5-1.5-1-3.1-1.4-4.6A53.6,53.6,0,0,1,73.5,140.3Z" style="fill:none"/><path d="M55,72c-8.6,8.4-9.8,55.6-10,70.1l2.9-.2C47.6,109.7,49.4,84.7,55,72Z" style="fill:#862267"/><path d="M83.8,71.5h.1a2.5,2.5,0,0,0-2,.6c-9.1,12.5-19.1,53.3-22.7,69.2h2C64.7,126.1,73.7,91,83.8,71.5Z" style="fill:#862267"/><path d="M97.7,79.5A12,12,0,0,0,93.5,75,59.6,59.6,0,0,1,97.7,79.5Z" style="fill:#862267"/><path d="M83.9,71.4A20.9,20.9,0,0,1,93.5,75C90.1,71.7,85.6,68.3,83.9,71.4Z" style="fill:#862267"/><path d="M17.2,78c5.4,11.9,7.1,35.3,6.7,65.5l2.7-.2C26.4,129.2,25.2,85.8,17.2,78Z" style="fill:#862267"/><path d="M77.7,110.4c-4.1,2.2-6.1,8.1-7.2,14.7a25.4,25.4,0,0,0,1.6-2.8C73.6,112.9,76.3,112.9,77.7,110.4Z" style="fill:#862267"/><path d="M69.7,140.6h1.2v-.3c0-5.6.3-10,.6-13.4L70,130A97.1,97.1,0,0,0,69.7,140.6Z" style="fill:#862267"/><path d="M73.3,123.3c9.9-19.8,18.9-25,18.9-25-4.6-.4-12.6,11.3-20.1,24-.2,1.3-.4,2.8-.5,4.5C72.1,125.6,72.7,124.5,73.3,123.3Z" style="fill:#862267"/><path d="M70,130c.1-1.6.3-3.3.5-4.9-3.1,5.5-6,11.1-8.5,15.9h2.6Z" style="fill:#862267"/><path d="M71.6,126.8c.1-1.7.3-3.2.5-4.5a25.4,25.4,0,0,1-1.6,2.8c-.2,1.6-.4,3.3-.5,4.9Z" style="fill:#862267"/><path d="M84.6,117.9c9.9-19.8,19-25,19-25-6.4-.5-19.3,21.8-28.1,38.6a14.8,14.8,0,0,0,.6,3.6Z" style="fill:#862267"/><path d="M73.5,140.3a53.6,53.6,0,0,0,2.4-4.8,30.8,30.8,0,0,1-.7-3.5c-1.6,3-3,5.8-4.2,8.2v.3Z" style="fill:#862267"/><path d="M71,140.5v0Z" style="fill:#862267"/><path d="M77.3,140.1h.6q-.5-1-.9-2.4a16.1,16.1,0,0,1-.9-2.6l-.2.4C76.3,137,76.8,138.6,77.3,140.1Z" style="fill:#862267"/><path d="M75.5,129.2c-.4.4-.5,1.4-.3,2.8l.3-.5A6.8,6.8,0,0,1,75.5,129.2Z" style="fill:#862267"/><path d="M76.1,135.1a14.8,14.8,0,0,1-.6-3.6l-.3.5a30.8,30.8,0,0,0,.7,3.5Z" style="fill:#862267"/><path d="M21.1,137.7c-2.1-5.7-1.4-8.5-1.4-8.5s1.1,9.4,2.9,14.4h.7Z" style="fill:#862267"/><path d="M4.3,144.9H23.1c-.2-.4-.3-.9-.5-1.3Z" style="fill:#862267"/><path d="M62,141h-.8c-.3,1.1-.6,2.1-.8,3C60.9,143.1,61.5,142.1,62,141Z" style="fill:#862267"/><path d="M26.6,143.3v1.6H45v-2.8Z" style="fill:#862267"/><path d="M23.9,144.9v-1.4h-.6c.2.5.3,1,.5,1.4Z" style="fill:#862267"/><path d="M69.7,140.6l-5.1.3-2,4h6.1c.3-.7.7-1.4,1-2.2Z" style="fill:#862267"/><path d="M386.2,144.9s-48.6-2.6-131.5-7.8c-47.1-3-121.4-.1-176.8,3l1.7,4.8Z" style="fill:#862267"/><path d="M73.5,140.3c-.8,1.8-1.5,3.3-2.2,4.6h7.6l-1.6-4.8Z" style="fill:#862267"/><path d="M47.9,141.9c0,1,.1,2,.1,3H58.4l.8-3.7Z" style="fill:#862267"/><path d="M45,142.1v2.8h3c0-1-.1-2-.1-3Z" style="fill:#862267"/><path d="M60.4,144.1c.2-.9.5-1.9.8-3h-2l-.8,3.7H60Z" style="fill:#862267"/><path d="M23.9,143.5v1.4h2.7v-1.6Z" style="fill:#862267"/><path d="M69.7,140.6v2.1l1.2-2.2Z" style="fill:#862267"/><path d="M62,141c-.5,1.1-1.1,2.1-1.6,3.1s-.1.5-.1.8h2.3l2-4Z" style="fill:#862267"/><path d="M60.3,144.9c0-.3.1-.5.1-.8l-.4.8Z" style="fill:#862267"/><path d="M71,140.5v4.4h.3c.7-1.3,1.4-2.8,2.2-4.6Z" style="fill:#862267"/><path d="M69.7,142.7c-.3.8-.7,1.5-1,2.2h1.1A17,17,0,0,0,69.7,142.7Z" style="fill:#862267"/><path d="M69.7,142.7a17,17,0,0,1,.1,2.2H71v-4.4h-.1Z" style="fill:#862267"/><path d="M77.9,140.1h-.6l1.6,4.8h.7Z" style="fill:#862267"/><path d="M23.3,143.5h-.7c.2.4.3.9.5,1.3h.7C23.6,144.5,23.5,144,23.3,143.5Z" style="fill:#862267"/><polygon points="113.9 122.7 123.2 123.6 129.5 116 121 115.5 113.9 122.7" style="fill:#a63384"/><rect x="119.7" y="118.1" width="0.1" height="6.8" transform="translate(-9.5 232.9) rotate(-86.2)" style="fill:#862267"/><rect x="121.2" y="116.7" width="0.1" height="6.8" transform="translate(-6.6 233) rotate(-86.2)" style="fill:#862267"/><rect x="122.6" y="115.2" width="0.1" height="6.8" transform="translate(-3.8 233.1) rotate(-86.2)" style="fill:#862267"/></svg>
