<svg xmlns="http://www.w3.org/2000/svg" viewBox="0 0 300 140.6" class="home__graphic"><path d="M274.5,82.4V73h-4.2v6.7L259.7,73,236.4,87.7h4.2V99.6L232,94.2l-8.7,5.5a7.9,7.9,0,0,0-4.6-6.7,11.2,11.2,0,0,0-4-3.8,2.4,2.4,0,0,0,.7-1.6,2.4,2.4,0,0,0-2.4-2.4l-1,.2a8.5,8.5,0,0,0-7.2-4.1l-1.7.2a7,7,0,0,0-6.1-3.6,5.7,5.7,0,0,0-3.7-4.5,12.3,12.3,0,0,0-7.2-5.6,6.8,6.8,0,0,0-6.7-6.4,7.2,7.2,0,0,0-3.6,1,9.7,9.7,0,0,0-5.9-2l-1.9.2a11.7,11.7,0,0,0-7.5-2.7,11.4,11.4,0,0,0-6.1,1.7h-.2a12.3,12.3,0,0,0-7.2-5.6,6.7,6.7,0,0,0-6.7-6.4,7.5,7.5,0,0,0-3.6,1,9.7,9.7,0,0,0-5.8-2l-2,.2a11.5,11.5,0,0,0-7.5-2.7,11.9,11.9,0,0,0-10.3,5.8,3.4,3.4,0,0,0-4.8,3.1,2.9,2.9,0,0,0,1,2.3,14.2,14.2,0,0,0-4.6,3.8,12.2,12.2,0,0,0-4.9,2.6L95.3,42.5h0V41c-.1-7.7-.5-21.5-.5-21.5S93.1,15.1,74.3,15s-22.1,3.2-22.1,3.2V46.1s0,.1.2.3l-11,85.8,3.4.4,3.7-29.2,9.2,1.5-1.6,25.3,2.1.5,1.7-25.4,10,1.6v24.3h6.9V107.1l11.8-1.9,1.7,25.5,2.1-.5-1.6-25.4,7.9-1.3,1.1.7,3.6,28.4,2.6-.3a6.6,6.6,0,0,1-3.5,2h30.1v-.6h22.8a87,87,0,0,1-10.3-2.8v-28a15.6,15.6,0,0,0,7.4,2.2v27.7h5.7V108.1a10.2,10.2,0,0,0,5.2,4.6v15.2c-1.3,2.4-3.5,5.3-6.2,5.7h19.6l-2.9.7H207c-1.8-.3-3.4-2.3-4.3-4V114.4h1.4a9.4,9.4,0,0,0,6.5-2.5h.8a4,4,0,0,0,1.5-.3v22.3h38.2v-.4h27.7v-46h4.1ZM55.3,50.2a13.6,13.6,0,0,0,3.3,2.2c1.4.7,2.3,1.4,3.2,1.9l-.6,8.2-7.3-1.3Zm2.6,52.6-9.1-1.4,2.3-18.3,8.3,1.5Zm1.6-20.3-8.1-1.4,2.3-17.9L61,64.6Zm10.4,22.1-9.8-1.5L61.5,85l8.4,1.5Zm0-20.4-8.2-1.3L63.2,65l6.7,1.3Zm0-20.2-6.6-1.1.6-7.5a22.1,22.1,0,0,0,6,1Zm24.6-1.1v1.3H94a3.4,3.4,0,0,0-3.4,3.4,3.3,3.3,0,0,0,1,2.3,14.6,14.6,0,0,0-3.4,2.6l-.7-8.2ZM91.8,50.7a3.8,3.8,0,0,0,1-.9l1.4,11.1-6.9,1.2-.6-8.3A25.2,25.2,0,0,0,91.8,50.7Zm-15,5.8a30.1,30.1,0,0,0,7.7-1.8l.7,7.8L76.8,64Zm0,9.8,8.5-1.6.9,10.1-.3.4A11.3,11.3,0,0,0,79.4,84l-2.6.4Zm0,38.4v-18l2.5-.4a11.4,11.4,0,0,0,8.6,10.3l.5,6.4Zm13.8-2-.5-5.8h.5a5.5,5.5,0,0,0,3.6,5.2Zm18.1,25.9a16.8,16.8,0,0,1-2,2.9l-3.3-25.9a12.4,12.4,0,0,0,3.3.4h2Zm8.2-25a16.4,16.4,0,0,0,3.3,1.4l-3.3,3.7Zm7.7,30.1c-2-.5-4.9-1.2-7.7-2.2V112l5.9-6.4h1.8Zm12.2-5.7a12.7,12.7,0,0,1-4.2,5V105.2l2.2.2h2Zm35.9,3.2-1.1-.4V116.7l1.1,1.1Zm0-15.7-1.1-1.2v-.8l1.1.4Zm8.4,16.9h-.3a9.3,9.3,0,0,1-2.3-3V115.8l2.6,2.9Zm0-16-2.3-2.6h2.3Zm15.9,16c-2.5.8-5.2,1.5-6.5,1.8s-2.8-2.4-3.7-3.9V114.4h1.5a9.1,9.1,0,0,0,2.3-.3h2.3l4.1,4.5Zm0-16-2.3-2.6a9.4,9.4,0,0,0,2.3-1Z" style="fill:#862267"/><path d="M93.7,40.2c-.2-7.1-.5-19.9-.5-19.9s-1.6-4.1-19-4.2-20.5,3-20.5,3V44.9a14.2,14.2,0,0,0,5.9,5.9c4.3,2.2,4,3.6,14,3.9a27.3,27.3,0,0,0,16.8-5.5S93.8,47.3,93.7,40.2Z" style="fill:#a63384"/><path d="M154.2,78.4a6,6,0,0,0-3.8-4.5,11.8,11.8,0,0,0-7.2-5.5,6.6,6.6,0,0,0-6.7-6.4,6.5,6.5,0,0,0-3.6,1,9.2,9.2,0,0,0-5.8-2.1l-2,.2a11.5,11.5,0,0,0-7.5-2.7,12,12,0,0,0-10.3,5.9,3.3,3.3,0,0,0-1.5-.4,3.4,3.4,0,0,0-3.3,3.4,3.1,3.1,0,0,0,1,2.4,14.4,14.4,0,0,0-5.8,5.4,11.3,11.3,0,0,0,4.8,21.6,5.7,5.7,0,0,0,5.6,5.7h1.1a14.2,14.2,0,0,0,9.3,3.6l2.1-.2v22.7c-1.4,2.4-3.6,5.3-6.2,5.8h24.7s-5.5-1.2-10.3-2.8v-28a15.3,15.3,0,0,0,7.7,2.1,14.9,14.9,0,0,0,13.4-8.3,6.9,6.9,0,0,0,6.5-5,7.1,7.1,0,0,0-2.2-13.8Z" style="fill:#a63384"/><polygon points="266 103.7 266 94.3 261.7 94.3 261.7 101 251.1 94.3 227.9 109 232 109 232 134.3 270.2 134.3 270.2 109 274.4 109 266 103.7" style="fill:#a63384"/><path d="M204.9,96a8.4,8.4,0,0,0-3.7-3.5,2.1,2.1,0,0,0,.7-1.5,2.2,2.2,0,0,0-2.2-2.2l-1,.2a7.6,7.6,0,0,0-11.5-2l-1.3-.2a5.9,5.9,0,0,0-3.8,1.4,3.9,3.9,0,0,0-2.3-.7,4.4,4.4,0,0,0-4.4,4.1,7.9,7.9,0,0,0-4.6,3.6,4,4,0,0,0-2.5,3,4.5,4.5,0,0,0-4.5,4.5,4.8,4.8,0,0,0,3.1,4.4,4.6,4.6,0,0,0,4.2,3.3,9.7,9.7,0,0,0,8.7,5.4H181l3.8,4.1v12.7a54.4,54.4,0,0,1-6.7,1.8h16c-1.7-.2-3.1-2.1-4-3.7V115.9h1.3a8.8,8.8,0,0,0,6.1-2.4h.7a3.7,3.7,0,0,0,3.7-3.7,7.3,7.3,0,0,0,3-14Zm-20.1,21.7-2.1-2.4a6.7,6.7,0,0,0,2.1-.9Z" style="fill:#a63384"/><path d="M73.7,23.3s22.6.2,23-4.1c.1-.6-.5-1.2-1.4-1.7h.5L74.3,6.8,52.7,17.2h.4c-1.5.5-2.5,1.1-2.9,1.9C48.4,23.4,73.7,23.3,73.7,23.3Z" style="fill:#862267"/><rect x="50.2" y="38.3" width="46.6" height="3.64" style="fill:#862267"/><path d="M296.9,134.3s-178.5-9.5-236.4-5.1L2.6,133.6S76,132,91.1,135,202.7,134.3,296.9,134.3Z" style="fill:#862267"/></svg>
