<svg xmlns="http://www.w3.org/2000/svg" viewBox="0 0 214.5 94.3" class="home__graphic"><path d="M198.1,55.1V48.3H195v4.9l-7.7-4.9L170.4,58.9h3v8.7l-6.2-3.9-6.4,4a5.8,5.8,0,0,0-3.4-4.9,6.9,6.9,0,0,0-2.9-2.7,1.8,1.8,0,0,0,.5-1.2,1.6,1.6,0,0,0-1.7-1.7h-.7a6.1,6.1,0,0,0-5.3-3l-1.2.2a4.9,4.9,0,0,0-4.4-2.7,4.7,4.7,0,0,0-2.8-3.3,8.8,8.8,0,0,0-5.2-4,4.8,4.8,0,0,0-7.5-3.9,6.4,6.4,0,0,0-4.3-1.5h-1.4a8.7,8.7,0,0,0-5.5-1.9,8.3,8.3,0,0,0-4.4,1.2.1.1,0,0,0-.1-.1,9.1,9.1,0,0,0-5.2-4,5,5,0,0,0-5-4.7,5.2,5.2,0,0,0-2.5.7,7.2,7.2,0,0,0-4.3-1.5l-1.4.2a8.8,8.8,0,0,0-5.5-2,8.6,8.6,0,0,0-7.5,4.3,2,2,0,0,0-1.1-.3,2.5,2.5,0,0,0-2.4,2.5,2.1,2.1,0,0,0,.7,1.7A11.3,11.3,0,0,0,72.9,38a9.4,9.4,0,0,0-3.5,2L67.6,26.1h-.1a4.8,4.8,0,0,0,0-1.2c0-5.6-.3-15.6-.3-15.6S65.9,6.1,52.3,6,36.2,8.3,36.2,8.3V28.9l-8,62.5,2.5.3,2.7-21.3,6.7,1.1L39,90l1.6.3,1.2-18.5,7.3,1.1V90.7h5V73.1l8.6-1.4,1.2,18.6,1.6-.3L64.3,71.4l5.8-.9.7.5,2.7,20.7,1.9-.2a4.8,4.8,0,0,1-2.6,1.4H94.7v-.4h16.6a68.1,68.1,0,0,1-7.5-2V70.1a11.3,11.3,0,0,0,5.5,1.5V91.8h4.1v-18a7.9,7.9,0,0,0,3.8,3.4V88.3c-1,1.7-2.6,3.8-4.5,4.1h14.2a11.3,11.3,0,0,1-2.1.5H149c-1.4-.2-2.5-1.7-3.2-2.9V78.4h1a7.3,7.3,0,0,0,4.8-1.8h.6a1.8,1.8,0,0,0,1-.2V92.8h27.9v-.3h20.1V58.9h3ZM38.5,31.6a10.6,10.6,0,0,0,2.3,1.7l2.4,1.4-.5,5.9-5.3-.9ZM40.3,70l-6.6-1,1.7-13.4,6,1.1Zm1.2-14.8-5.9-1,1.6-13.1,5.4,1.1Zm7.6,16.1-7.2-1.1L43,57l6.1,1.1Zm0-14.9-6-1,1-12.9,5,.9Zm0-14.7-4.8-.8.4-5.5a16.5,16.5,0,0,0,4.4.8ZM67,40.9v.9h-.5a2.4,2.4,0,0,0-2.4,2.4,2.4,2.4,0,0,0,.7,1.8,7.6,7.6,0,0,0-2.5,1.8l-.5-5.9Zm-2-8.8.7-.7,1.1,8-5,.9-.5-6A21.7,21.7,0,0,0,65,32.1ZM54.1,36.2a18.4,18.4,0,0,0,5.6-1.3l.5,5.7-6.1,1.1Zm0,7.2,6.2-1.2.6,7.4-.2.3A8.1,8.1,0,0,0,56,56.3l-1.9.3Zm0,28V58.3l1.8-.4a8.1,8.1,0,0,0,6.3,7.5l.4,4.7Zm10-1.5-.3-4.2h.4a4.1,4.1,0,0,0,2.5,3.8ZM77.3,88.8a12.8,12.8,0,0,1-1.4,2.1L73.5,72a8.8,8.8,0,0,0,2.4.3h1.4Zm6-18.3a8.8,8.8,0,0,0,2.4,1.1l-2.4,2.7Zm5.6,22a51.1,51.1,0,0,1-5.6-1.6V76.7L87.6,72h1.3Zm8.9-4.2A11,11,0,0,1,94.7,92V71.7l1.7.2h1.4ZM124,90.7l-.8-.3V80.1l.8.8Zm0-11.4-.8-.9v-.6l.8.2Zm6.1,12.2h-.3a11.8,11.8,0,0,1-1.7-2.2V79.5l2,2Zm0-11.6L128.4,78h1.7Zm11.5,11.6a45.2,45.2,0,0,1-4.7,1.3,5.5,5.5,0,0,1-2.6-2.8V78.4h1l1.7-.2h1.6l3,3.2Zm0-11.6L140,78l1.6-.7Z" style="fill:#862267"/><path d="M66.4,24.4C66.3,19.2,66,9.9,66,9.9s-1.1-3-13.8-3.1S37.2,9,37.2,9V27.8a10.6,10.6,0,0,0,4.4,4.3c3.1,1.6,2.9,2.6,10.2,2.8A19.6,19.6,0,0,0,64,31S66.4,29.6,66.4,24.4Z" style="fill:#a63384"/><path d="M110.5,52.2a4.5,4.5,0,0,0-2.8-3.3,8.8,8.8,0,0,0-5.2-4,4.9,4.9,0,0,0-4.9-4.7A4.5,4.5,0,0,0,95,41a6.6,6.6,0,0,0-4.3-1.5H89.3a8.6,8.6,0,0,0-13,2.3,2,2,0,0,0-1.1-.2,2.4,2.4,0,0,0-1.7,4.1,10.8,10.8,0,0,0-4.2,4,8.2,8.2,0,0,0,3.5,15.7,4.1,4.1,0,0,0,4.1,4.2h.8a10.3,10.3,0,0,0,6.8,2.6H86V88.7c-1,1.7-2.6,3.8-4.5,4.1H99.4a75.1,75.1,0,0,1-7.5-2V70.4A11.1,11.1,0,0,0,97.6,72a11,11,0,0,0,9.8-6.1,5.1,5.1,0,0,0,4.7-3.7,5.2,5.2,0,0,0-1.6-10Z" style="fill:#a63384"/><polygon points="191.9 70.6 191.9 63.8 188.8 63.8 188.8 68.7 181.1 63.8 164.1 74.5 167.2 74.5 167.2 92.9 195 92.9 195 74.5 198 74.5 191.9 70.6" style="fill:#a63384"/><path d="M147.4,65a6,6,0,0,0-2.7-2.5,1.7,1.7,0,0,0,.5-1.2,1.6,1.6,0,0,0-1.6-1.5h-.7a5.7,5.7,0,0,0-4.8-2.7,5.6,5.6,0,0,0-3.6,1.2h-.9a4.5,4.5,0,0,0-2.8,1,3.4,3.4,0,0,0-1.7-.5,3.3,3.3,0,0,0-3.2,3,5.5,5.5,0,0,0-3.3,2.7,2.6,2.6,0,0,0-1.8,2.1,3.3,3.3,0,0,0-3.3,3.3,3.4,3.4,0,0,0,2.2,3.2,3.5,3.5,0,0,0,3.1,2.4,7,7,0,0,0,6.3,3.9h.9l2.8,3v9.2a40.7,40.7,0,0,1-4.9,1.3h11.7c-1.3-.2-2.3-1.5-2.9-2.7V79.5h.9a6.9,6.9,0,0,0,4.4-1.7h.5a2.7,2.7,0,0,0,2.7-2.6A5.4,5.4,0,0,0,147.4,65ZM132.8,80.8l-1.6-1.7,1.6-.7Z" style="fill:#a63384"/><path d="M51.9,12s16.4.2,16.7-2.9c0-.5-.4-.9-1.1-1.3h.4L52.2,0,36.5,7.6h.3A3.5,3.5,0,0,0,34.7,9C33.4,12.1,51.9,12,51.9,12Z" style="fill:#862267"/><rect x="34.7" y="22.9" width="33.9" height="2.66" style="fill:#862267"/><path d="M214.5,92.9S84.4,86,42.2,89.2L0,92.4s53.5-1.1,64.5,1.1S145.8,92.9,214.5,92.9Z" style="fill:#862267"/></svg>
