<svg xmlns="http://www.w3.org/2000/svg" viewBox="0 0 269.1 100.6" class="home__graphic"><polygon points="253.4 28.8 213.2 28.8 213.2 65.8 206.2 58.8 198.7 66.2 198.7 44.8 183.6 44.8 183.6 29.5 149.7 29.5 149.7 18.7 140.1 18.7 140.1 0 139.2 0 139.2 18.7 129.7 18.7 129.7 25.9 109.6 25.9 109.6 51.3 96.7 51.3 86.5 72.5 86.5 30.3 46.4 30.3 46.4 46.3 35.7 46.3 35.7 98.2 57 98.2 57 97.8 86.5 97.8 86.5 97.2 149.7 97.2 149.7 97 149.7 97 183.6 97 183.6 96.7 198.7 96.7 198.7 96.5 221.3 96.5 221.3 96.3 253.4 96.3 253.4 28.8" style="fill:#862267"/><polygon points="247 65.7 247 55.4 203.3 55.4 203.3 82.6 192.2 68.9 178.2 68.9 178.2 52.6 156.3 52.6 156.3 47.9 134.5 47.9 134.5 54.9 97.6 54.9 97.6 64.7 81.2 64.7 81.2 78.5 73 73.7 65.4 78.3 65.4 54.4 21.7 54.4 21.7 97.8 56.6 97.8 56.6 98 81.2 98 81.2 98.1 97.6 98.1 97.6 98.3 134.5 98.3 134.6 98.3 134.6 98.4 203.3 98.4 203.3 98.8 235.4 98.8 235.4 99.1 258.6 99.1 258.6 65.7 247 65.7" style="fill:#a63384"/><polygon points="42.5 76.4 14.9 76.4 0 100.1 42.5 100.1 42.5 100.6 58.7 100.6 58.7 69.9 42.5 69.9 42.5 76.4" style="fill:#862267"/><rect x="87.6" y="57.8" width="14.4" height="41.24" style="fill:#862267"/><polygon points="184.5 80.9 168 88.4 166.4 88.4 166.4 100.4 201.7 100.4 201.7 88.4 201.1 88.4 184.5 80.9" style="fill:#862267"/><rect x="242" y="65.2" width="27.1" height="34.95" style="fill:#862267"/></svg>
