<svg height="200" viewBox="0 0 249 268" fill="none" xmlns="http://www.w3.org/2000/svg" class="donate__ways-graphic">
<path d="M51.2852 56.5237C62.8109 56.5237 72.1543 47.1951 72.1543 35.6878C72.1543 24.1804 62.8109 14.8518 51.2852 14.8518C39.7594 14.8518 30.416 24.1804 30.416 35.6878C30.416 47.1951 39.7594 56.5237 51.2852 56.5237Z" fill="#F29C62"/>
<path d="M224.799 63.1637C183.265 63.1637 197.542 62.8015 178.54 63.1637L148.121 46.6519L134.102 6.72094C132.678 2.66639 128.915 0.109398 124.854 0.00523437C124.736 -0.000523438 124.618 0.00104688 124.5 0C124.382 0.00104688 124.264 -0.000523438 124.146 0.00471094C120.086 0.108352 116.322 2.66587 114.899 6.72041L100.879 46.6508L70.46 63.1627C51.4583 62.8005 65.7347 63.1627 24.2009 63.1627C10.9227 63.1627 0.0660582 73.7817 0 86.8849V160.743C0 166.295 4.50821 170.797 10.0697 170.797C15.6306 170.797 20.1394 166.295 20.1394 160.743V86.9356C20.1394 86.9351 20.1394 86.9341 20.1394 86.9335C20.1467 85.7317 21.126 84.7623 22.3298 84.7665C23.5335 84.7702 24.5065 85.7453 24.5071 86.9472L24.5118 255.936C24.5118 262.599 29.9212 267.999 36.5952 267.999C43.2686 267.999 48.6781 262.599 48.6781 255.936V159.507H53.8951V255.936C53.8951 262.599 59.3045 268 65.978 268C72.6514 268 78.0609 262.599 78.0609 255.936C78.0609 162.545 78.0609 175.72 78.0609 82.3545C78.0614 82.3545 77.8433 82.354 77.8438 82.3535L113.986 62.3906C116.149 61.1956 117.796 59.2489 118.614 56.9191L124.5 40.1545L130.386 56.9191C131.204 59.2479 132.851 61.1956 135.015 62.3906L171.157 82.3535C171.157 82.354 170.939 82.3545 170.94 82.3545C170.94 175.72 170.94 162.545 170.94 255.936C170.94 262.599 176.349 268 183.023 268C189.696 268 195.105 262.599 195.105 255.936V159.507H200.322V255.936C200.322 262.599 205.732 268 212.405 268C219.079 268 224.488 262.599 224.488 255.936L224.493 86.9477C224.493 85.7459 225.467 84.7707 226.67 84.767C227.874 84.7634 228.854 85.7328 228.861 86.9341C228.861 86.9346 228.861 86.9356 228.861 86.9362V160.744C228.861 166.296 233.369 170.798 238.93 170.798C244.492 170.798 249 166.296 249 160.744V86.8854C248.934 73.7822 238.077 63.1637 224.799 63.1637Z" fill="#F29C62"/>
<path d="M197.717 56.5237C209.243 56.5237 218.586 47.1951 218.586 35.6878C218.586 24.1804 209.243 14.8518 197.717 14.8518C186.191 14.8518 176.848 24.1804 176.848 35.6878C176.848 47.1951 186.191 56.5237 197.717 56.5237Z" fill="#F29C62"/>
</svg>
