<?xml version="1.0" standalone="yes"?>

<svg version="1.1" viewBox="0.0 0.0 751.0 318.0" fill="none" stroke="none" stroke-linecap="square" stroke-miterlimit="10" xmlns="http://www.w3.org/2000/svg" xmlns:xlink="http://www.w3.org/1999/xlink"><clipPath id="p.0"><path d="m0 0l751.0 0l0 318.0l-751.0 0l0 -318.0z" clip-rule="nonzero"></path></clipPath><g clip-path="url(#p.0)"><path fill="#000000" fill-opacity="0.0" d="m0 0l751.9685 0l0 318.45932l-751.9685 0z" fill-rule="nonzero"></path><path fill="#000000" fill-opacity="0.0" d="m-69.04462 91.56431l890.7402 0l0 168.75589l-890.7402 0z" fill-rule="nonzero"></path><path fill="#000000" d="m5.9942904 227.85867l0 -88.671875q0 -2.984375 3.125 -3.265625l49.234375 0q1.359375 0 2.3125 0.953125q0.953125 0.953125 0.953125 2.3125q0 1.359375 -0.953125 2.390625q-0.953125 1.015625 -2.3125 1.015625l-45.6875 0l0 37.671875l39.984375 0q1.484375 0 2.4375 0.953125q0.953125 0.953125 0.953125 2.375q0 1.421875 -1.015625 2.375q-1.015625 0.953125 -2.375 0.953125l-39.984375 0l0 40.9375q0 1.359375 -1.03125 2.3125q-1.015625 0.953125 -2.375 0.953125q-1.359375 0 -2.3125 -0.953125q-0.953125 -0.953125 -0.953125 -2.3125zm86.90495 -6.59375q-9.25 -9.859375 -9.25 -23.453125q0 -13.609375 9.25 -23.46875q9.25 -9.859375 22.296875 -9.859375q13.0625 0 22.3125 9.859375q9.25 9.859375 9.25 23.46875q0 13.59375 -9.25 23.453125q-9.25 9.859375 -22.3125 9.859375q-13.046875 0 -22.296875 -9.859375zm22.296875 -50.390625q-10.1875 0 -17.609375 7.890625q-7.40625 7.890625 -7.40625 18.984375q0 11.078125 7.40625 18.96875q7.421875 7.875 17.609375 7.875q10.203125 0 17.609375 -7.875q7.421875 -7.890625 7.421875 -18.96875q0 -11.09375 -7.421875 -18.984375q-7.40625 -7.890625 -17.609375 -7.890625zm55.218704 33.046875l0 -36.3125q0 -1.359375 0.953125 -2.3125q0.953125 -0.953125 2.3125 -0.953125q1.359375 0 2.3125 0.953125q0.953125 0.953125 0.953125 2.3125l0 36.3125q0 8.578125 5.984375 14.5625q5.984375 5.984375 14.421875 6.109375q8.5625 -0.125 14.609375 -6.109375q6.0625 -5.984375 6.0625 -14.5625l0 -36.3125q0 -1.359375 1.015625 -2.3125q1.015625 -0.953125 2.375 -0.953125q1.359375 0 2.3125 0.953125q0.953125 0.953125 0.953125 2.3125l0 36.3125q0 11.296875 -7.953125 19.25q-7.953125 7.953125 -19.25 7.953125q-11.28125 0 -19.171875 -7.953125q-7.890625 -7.953125 -7.890625 -19.25zm91.133575 24.484375q-0.6875 2.71875 -3.140625 2.71875l-0.8125 0q-1.5 -0.40625 -2.171875 -1.765625q-0.140625 -0.140625 -0.140625 -0.40625l-0.140625 -0.28125l0 -60.78125q0 -1.359375 0.953125 -2.3125q0.953125 -0.953125 2.3125 -0.953125q1.359375 0 2.25 0.953125q0.890625 0.953125 0.890625 2.3125l0 6.390625q8.015625 -9.65625 19.90625 -9.65625q11.90625 0 19.859375 7.953125q7.96875 7.953125 7.96875 19.109375l0 36.171875q0 1.359375 -0.953125 2.3125q-0.953125 0.953125 -2.3125 0.953125q-1.359375 0 -2.3125 -0.953125q-0.953125 -0.953125 -0.953125 -2.3125l0 -36.171875q0 -8.4375 -5.984375 -14.484375q-5.984375 -6.046875 -14.484375 -6.046875q-8.5 0 -14.484375 5.984375q-5.984375 5.96875 -6.25 14.546875l0 36.71875zm130.2742 -0.546875l0 -9.65625q-4.484375 5.984375 -11.15625 9.453125q-6.65625 3.46875 -14.40625 3.46875q-13.46875 0 -22.859375 -9.71875q-9.375 -9.734375 -9.375 -23.53125q0 -13.8125 9.375 -23.59375q9.390625 -9.796875 22.859375 -9.796875q7.75 0 14.40625 3.546875q6.671875 3.53125 11.15625 9.515625l0 -38.359375q0 -1.359375 1.015625 -2.3125q1.03125 -0.953125 2.390625 -0.953125q1.359375 0 2.3125 0.953125q0.953125 0.953125 0.953125 2.3125l0 88.671875q0 1.359375 -0.953125 2.3125q-0.953125 0.953125 -2.3125 0.953125q-1.359375 0 -2.390625 -0.953125q-1.015625 -0.953125 -1.015625 -2.3125zm-51.125 -29.984375q0 11.078125 7.546875 18.84375q7.546875 7.75 17.953125 7.75q10.40625 0 17.8125 -7.40625q7.40625 -7.421875 7.8125 -18.03125l0 -2.171875q-0.40625 -10.75 -7.8125 -18.21875q-7.40625 -7.484375 -17.8125 -7.484375q-10.40625 0 -17.953125 7.8125q-7.546875 7.8125 -7.546875 18.90625zm137.9006 -32.4375q0.953125 -0.953125 2.3125 -0.953125q1.359375 0 2.3125 0.953125q0.953125 0.953125 0.953125 2.3125l0 60.109375q0 1.359375 -0.953125 2.3125q-0.953125 0.953125 -2.3125 0.953125q-1.359375 0 -2.3125 -0.953125q-0.953125 -0.953125 -0.953125 -2.3125l0 -9.921875q-4.359375 6.109375 -10.953125 9.65625q-6.59375 3.53125 -14.078125 3.53125q-13.0469055 0 -22.296906 -9.78125q-9.25 -9.796875 -9.25 -23.53125q0 -13.75 9.25 -23.53125q9.25 -9.796875 22.296906 -9.796875q7.484375 0 14.078125 3.546875q6.59375 3.53125 10.953125 9.515625l0 -9.796875q0 -1.359375 0.953125 -2.3125zm-51.00003 32.375q0 11.140625 7.40625 18.96875q7.421875 7.8125 17.68753 7.8125q10.265625 0 17.609375 -7.8125q7.34375 -7.828125 7.34375 -18.96875q0 -11.15625 -7.34375 -19.046875q-7.34375 -7.890625 -17.609375 -7.890625q-10.2656555 0 -17.68753 7.890625q-7.40625 7.890625 -7.40625 19.046875zm104.855865 -33.328125q1.21875 0 2.234375 1.03125q1.03125 1.015625 1.03125 2.234375q0 1.21875 -1.03125 2.25q-1.015625 1.015625 -2.234375 1.015625l-8.5625 0l0 48.546875q0 2.171875 1.6875 3.546875q1.703125 1.359375 3.0625 1.359375q1.359375 0 2.453125 1.09375q1.09375 1.078125 1.09375 2.296875q0 1.21875 -1.09375 2.25q-1.09375 1.015625 -2.3125 1.015625q-5.03125 0 -8.375 -3.265625q-3.328125 -3.265625 -3.328125 -8.296875l0 -48.546875l-8.296875 0q-2.171875 0 -2.71875 -0.8125q-0.53125 -0.828125 -0.53125 -2.1875q0 -1.359375 0.125 -1.90625q0.40625 -1.625 3.125 -1.625l8.296875 0l0 -24.75q0 -1.21875 1.015625 -2.234375q1.03125 -1.03125 2.3125 -1.03125q1.296875 0 2.390625 1.03125q1.09375 1.015625 1.09375 2.234375l0 24.75l8.5625 0zm34.540527 63.375l0 -60.109375q0 -1.359375 0.953125 -2.3125q0.953125 -0.953125 2.375 -0.953125q1.4375 0 2.390625 0.953125q0.953125 0.953125 0.953125 2.3125l0 60.109375q0 1.359375 -1.03125 2.3125q-1.015625 0.953125 -2.375 0.953125q-1.359375 0 -2.3125 -0.953125q-0.953125 -0.953125 -0.953125 -2.3125zm0 -78.75l0 -3.125q0 -1.359375 0.953125 -2.3125q0.953125 -0.953125 2.3125 -0.953125q1.359375 0 2.375 0.953125q1.03125 0.953125 1.03125 2.3125l0 3.125q0 1.5 -1.03125 2.53125q-1.015625 1.015625 -2.375 1.015625q-1.359375 0 -2.3125 -1.015625q-0.953125 -1.03125 -0.953125 -2.53125zm44.20044 72.15625q-9.25 -9.859375 -9.25 -23.453125q0 -13.609375 9.25 -23.46875q9.25 -9.859375 22.296875 -9.859375q13.0625 0 22.3125 9.859375q9.25 9.859375 9.25 23.46875q0 13.59375 -9.25 23.453125q-9.25 9.859375 -22.3125 9.859375q-13.046875 0 -22.296875 -9.859375zm22.296875 -50.390625q-10.1875 0 -17.609375 7.890625q-7.40625 7.890625 -7.40625 18.984375q0 11.078125 7.40625 18.96875q7.421875 7.875 17.609375 7.875q10.203125 0 17.609375 -7.875q7.421875 -7.890625 7.421875 -18.96875q0 -11.09375 -7.421875 -18.984375q-7.40625 -7.890625 -17.609375 -7.890625zm62.984253 57.53125q-0.6875 2.71875 -3.140625 2.71875l-0.8125 0q-1.5 -0.40625 -2.171875 -1.765625q-0.140625 -0.140625 -0.140625 -0.40625l-0.140625 -0.28125l0 -60.78125q0 -1.359375 0.953125 -2.3125q0.953125 -0.953125 2.3125 -0.953125q1.359375 0 2.25 0.953125q0.890625 0.953125 0.890625 2.3125l0 6.390625q8.015625 -9.65625 19.90625 -9.65625q11.90625 0 19.859375 7.953125q7.96875 7.953125 7.96875 19.109375l0 36.171875q0 1.359375 -0.953125 2.3125q-0.953125 0.953125 -2.3125 0.953125q-1.359375 0 -2.3125 -0.953125q-0.953125 -0.953125 -0.953125 -2.3125l0 -36.171875q0 -8.4375 -5.984375 -14.484375q-5.984375 -6.046875 -14.484375 -6.046875q-8.5 0 -14.484375 5.984375q-5.984375 5.96875 -6.25 14.546875l0 36.71875z" fill-rule="nonzero"></path><path fill="#000000" fill-opacity="0.0" d="m251.50919 0.6902887l123.1181 0l0 119.842514l-123.1181 0z" fill-rule="nonzero"></path><path fill="#000000" d="m260.3217 88.55091q0 -5.125 0.375 -10.296875q0.390625 -5.171875 1.015625 -10.484375l-4.390625 0l0.53125 -2.953125l4.25 0q0.671875 -4.921879 1.375 -9.875004q0.703125 -4.96875 1.28125 -9.9375l4.9375 0q-0.09375 1.0625 -0.265625 3.078125q-0.171875 2.0 -0.390625 4.640625q-0.21875 2.625 -0.421875 5.75q-0.1875 3.109375 -0.375 6.343754l9.375 0l-0.484375 2.953125l-9.078125 0q-0.203125 2.75 -0.34375 5.421875q-0.140625 2.65625 -0.265625 5.046875q-0.125 2.390625 -0.171875 4.40625q-0.046875 2.0 -0.046875 3.4375q0 3.6875 0.21875 6.15625q0.21875 2.453125 0.671875 3.953125q0.46875 1.5 1.15625 2.125q0.703125 0.625 1.625 0.625q1.21875 0 2.6875 -1.21875q1.46875 -1.234375 3.0625 -3.3125q1.59375 -2.078125 3.234375 -4.859375q1.65625 -2.78125 3.203125 -5.921875l0.484375 -1.015625l1.984375 1.5l-0.484375 1.015625q-2.234375 4.484375 -4.4375 8.0625q-2.1875 3.578125 -4.3125 6.078125q-2.125 2.484375 -4.15625 3.8125q-2.03125 1.328125 -3.921875 1.328125q-1.890625 0 -3.359375 -0.859375q-1.46875 -0.875 -2.484375 -2.78125q-1.015625 -1.921875 -1.546875 -4.90625q-0.53125 -3.0 -0.53125 -7.3125zm29.587433 -0.96875q0 2.375 -0.140625 5.015625q-0.140625 2.625 -0.609375 5.265625q-0.453125 2.625 -1.328125 5.125q-0.859375 2.484375 -2.359375 4.609375l-3.671875 -1.109375q1.203125 -4.0625 1.453125 -8.5q0.234375 -4.453125 0.234375 -8.90625q0 -4.828125 -0.3125 -9.65625q-0.3125 -4.84375 -0.71875 -9.703125q-0.421875 -4.859375 -0.734375 -9.781254q-0.3125 -4.9375 -0.3125 -9.96875q0 -3.03125 0.65625 -5.296875q0.640625 -2.28125 1.703125 -3.78125q1.078125 -1.5 2.375 -2.25q1.3125 -0.75 2.609375 -0.75q1.84375 0 2.921875 1.3125q1.09375 1.296875 1.625 3.53125q0.53125 2.21875 0.546875 5.171875q0.03125 2.9375 -0.265625 6.234375q-0.28125 3.28125 -0.8125 6.71875q-0.53125 3.4218788 -1.15625 6.671879q-0.625 3.234375 -1.234375 6.046875q-0.609375 2.796875 -1.046875 4.765625q0 0.390625 0.046875 0.8125q0.0625 0.40625 0.0625 0.796875q1.015625 -2.28125 2.484375 -4.90625q1.46875 -2.640625 3.328125 -4.90625q1.859375 -2.28125 4.0625 -3.796875q2.203125 -1.53125 4.671875 -1.53125q3.625 0 5.453125 2.421875q1.84375 2.421875 1.84375 6.953125q0 3.140625 -0.34375 6.046875q-0.328125 2.90625 -0.75 5.59375q-0.40625 2.671875 -0.75 5.1875q-0.328125 2.515625 -0.328125 4.984375q0 2.9375 1.5 2.9375q0.71875 0 1.84375 -1.28125q1.140625 -1.28125 2.546875 -3.40625q1.40625 -2.125 2.953125 -4.875q1.546875 -2.765625 3.046875 -5.75l0.484375 -1.015625l1.984375 1.5l-0.484375 1.015625q-1.703125 3.328125 -3.546875 6.765625q-1.828125 3.421875 -3.765625 6.203125q-1.921875 2.78125 -3.9375 4.546875q-2.0 1.765625 -3.984375 1.765625q-0.875 0 -1.765625 -0.28125q-0.890625 -0.296875 -1.625 -1.015625q-0.71875 -0.734375 -1.203125 -1.96875q-0.484375 -1.234375 -0.484375 -3.15625q0 -1.9375 0.1875 -4.203125q0.203125 -2.28125 0.46875 -4.671875q0.265625 -2.390625 0.59375 -4.765625q0.34375 -2.375 0.609375 -4.453125q0.265625 -2.078125 0.453125 -3.734375q0.203125 -1.671875 0.203125 -2.734375q0 -2.75 -0.78125 -4.0q-0.765625 -1.265625 -2.3125 -1.265625q-1.9375 0 -3.734375 1.6875q-1.78125 1.6875 -3.359375 4.234375q-1.5625 2.53125 -2.875 5.453125q-1.296875 2.921875 -2.3125 5.390625q0 0.734375 0.046875 1.4375q0.046875 0.6875 0.046875 1.21875zm-3.140625 -41.375004q0 1.984375 0.171875 4.8125q0.171875 2.828125 0.4375 6.125q0.265625 3.28125 0.578125 6.859379q0.3125 3.578125 0.65625 7.046875q0.53125 -2.703125 1.0625 -5.96875q0.53125 -3.2656288 0.9375 -6.562504q0.421875 -3.3125 0.625 -6.453125q0.21875 -3.15625 0.09375 -5.5625q-0.109375 -2.421875 -0.640625 -3.890625q-0.53125 -1.484375 -1.546875 -1.484375q-0.921875 0 -1.65625 1.125q-0.71875 1.109375 -0.71875 3.953125zm48.847565 52.73438q1.6875 0 3.453125 -0.859375q1.765625 -0.875 3.578125 -2.703125q1.8125 -1.84375 3.734375 -4.765625q1.9375 -2.921875 3.96875 -6.984375l0.484375 -1.015625l1.984375 1.5l-0.484375 1.015625q-2.609375 5.171875 -5.203125 8.84375q-2.578125 3.671875 -5.078125 6.0q-2.484375 2.3125 -4.90625 3.375q-2.40625 1.0625 -4.625 1.0625q-3.140625 0 -5.609375 -1.296875q-2.46875 -1.3125 -4.171875 -3.5625q-1.6875 -2.25 -2.578125 -5.21875q-0.890625 -2.96875 -0.890625 -6.265625q0 -5.21875 1.4375 -9.484375q1.421875 -4.28125 3.8125 -7.328125q2.390625 -3.046875 5.4375 -4.734375q3.046875 -1.703125 6.328125 -1.703125q3.328125 0 5.09375 1.703125q1.765625 1.6875 1.765625 4.25q0 2.46875 -1.40625 4.625q-1.390625 2.140625 -3.78125 4.203125q-2.390625 2.046875 -5.546875 4.0625q-3.140625 2.0 -6.609375 4.125q0.328125 2.515625 1.140625 4.578125q0.828125 2.046875 2.078125 3.515625q1.265625 1.46875 2.90625 2.265625q1.65625 0.796875 3.6875 0.796875zm1.5 -26.71875q0 -1.9375 -1.046875 -3.046875q-1.03125 -1.125 -2.53125 -1.125q-1.265625 0 -2.671875 0.90625q-1.390625 0.890625 -2.5625 2.859375q-1.15625 1.953125 -1.9375 5.0q-0.765625 3.03125 -0.765625 7.390625l0 1.109375q1.640625 -0.875 3.640625 -2.296875q2.015625 -1.421875 3.75 -3.15625q1.75 -1.75 2.9375 -3.703125q1.1875 -1.96875 1.1875 -3.9375z" fill-rule="nonzero"></path><path fill="#000000" fill-opacity="0.0" d="m-20.112862 258.38583l786.92914 0l0 53.88977l-786.92914 0z" fill-rule="nonzero"></path><path fill="#000000" d="m13.47918 311.43582q-0.78125 0.75 -1.859375 0.75q-1.078125 0 -1.828125 -0.75q-0.75 -0.75 -0.75 -1.828125l0 -27.734375q0 -1.078125 0.75 -1.828125q0.75 -0.765625 1.828125 -0.765625l15.374999 0q1.03125 0 1.796875 0.78125q0.78125 0.78125 0.78125 1.84375q0 1.046875 -0.78125 1.828125q-0.765625 0.765625 -1.796875 0.765625l-12.734374 0l0 8.609375l10.953124 0q1.03125 0 1.796875 0.78125q0.78125 0.765625 0.78125 1.828125q0 1.046875 -0.75 1.828125q-0.75 0.78125 -1.828125 0.78125l-10.953124 0l0 11.28125q0 1.078125 -0.78125 1.828125zm41.00505 -4.234375q-4.671875 -4.984375 -4.671875 -11.9375q0 -6.953125 4.671875 -11.9375q4.671875 -4.984375 11.390625 -4.984375q6.71875 0 11.390625 5.0625q4.6875 5.046875 4.6875 11.90625q0 6.859375 -4.75 11.84375q-2.109375 2.359375 -5.078125 3.703125q-2.953125 1.328125 -6.15625 1.328125q-6.8125 0 -11.484375 -4.984375zm0.671875 -11.9375q0 4.75 3.15625 8.15625q3.15625 3.40625 7.59375 3.40625q4.4375 0 7.5625 -3.453125q3.125 -3.453125 3.125 -8.109375q0 -4.65625 -3.109375 -8.109375q-3.09375 -3.453125 -7.578125 -3.453125q-4.484375 0 -7.625 3.40625q-3.125 3.40625 -3.125 8.15625zm66.49831 1.828125q3.1875 2.453125 3.1875 6.828125q-0.046875 1.546875 0.1875 2.765625q1.21875 0.375 1.640625 1.625q0.4375 1.25 -0.375 2.328125q-0.796875 1.078125 -2.296875 1.078125l-0.046875 0q-2.109375 0 -3.328125 -2.15625q-1.0 -2.078125 -1.0 -5.640625q-0.09375 -2.171875 -1.96875 -3.390625q-1.21875 -0.796875 -2.625 -1.125l-5.546875 0l0 10.203125q0 1.078125 -0.78125 1.828125q-0.78125 0.75 -1.859375 0.75q-1.078125 0 -1.828125 -0.75q-0.75 -0.75 -0.75 -1.828125l0 -27.734375q0 -1.078125 0.75 -1.828125q0.75 -0.765625 1.828125 -0.765625l8.421875 0q4.171875 0 7.109375 2.96875q2.9375 2.953125 2.9375 7.375q0 4.421875 -3.65625 7.46875zm-6.390625 -2.90625q2.015625 0 3.421875 -1.40625q1.40625 -1.421875 1.40625 -3.40625q0 -2.0 -1.40625 -3.4375q-1.40625 -1.4375 -3.421875 -1.4375l-5.78125 0l0 9.6875l5.78125 0z" fill-rule="nonzero"></path><path fill="#000000" d="m208.93472 302.1702q0 -3.5625 -8.265625 -5.125l-0.09375 0q-3.671875 -0.703125 -6.359375 -1.96875q-2.671875 -1.265625 -3.921875 -3.265625q-1.234375 -2.0 -1.234375 -4.109375q0 -4.09375 3.59375 -6.71875q3.59375 -2.640625 8.296875 -2.640625q2.0625 0 4.21875 0.703125q2.171875 0.703125 3.21875 1.328125q1.0625 0.609375 2.796875 1.734375q0.8125 0.5625 1.015625 1.546875q0.21875 0.984375 -0.328125 1.8125q-0.53125 0.828125 -1.53125 1.046875q-0.984375 0.203125 -1.828125 -0.359375q-2.203125 -1.515625 -3.921875 -2.265625q-1.71875 -0.75 -3.640625 -0.75q-3.109375 0 -5.078125 1.46875q-1.96875 1.453125 -1.96875 3.09375q0 0.796875 0.375 1.359375q1.3125 2.15625 7.09375 3.25l0.09375 0q3.953125 0.796875 6.484375 1.96875q5.828125 2.859375 5.828125 7.890625q0 4.375 -3.859375 7.171875q-3.84375 2.796875 -8.875 2.796875q-6.15625 -0.046875 -12.03125 -4.703125q-0.75 -0.609375 -0.875 -1.640625q-0.109375 -1.03125 0.5 -1.78125q0.609375 -0.765625 1.640625 -0.875q1.03125 -0.125 1.78125 0.546875q4.515625 3.65625 8.984375 3.609375q3.515625 0 5.703125 -1.609375q2.1875 -1.625 2.1875 -3.515625zm28.428986 10.015625q-1.078125 0 -1.828125 -0.75q-0.75 -0.75 -0.75 -1.828125l0 -27.734375q0 -1.078125 0.75 -1.828125q0.75 -0.765625 1.828125 -0.765625l15.375 0q1.03125 0 1.796875 0.765625q0.78125 0.75 0.78125 1.828125q0 1.078125 -0.78125 1.859375q-0.765625 0.765625 -1.796875 0.765625l-12.734375 0l0 8.609375l10.953125 0q1.03125 0 1.796875 0.78125q0.78125 0.765625 0.78125 1.828125q0 1.046875 -0.75 1.828125q-0.75 0.78125 -1.828125 0.78125l-10.953125 0l0 8.640625l12.734375 0q1.03125 0 1.796875 0.78125q0.78125 0.765625 0.78125 1.828125q0 1.0625 -0.78125 1.84375q-0.765625 0.765625 -1.796875 0.765625l-15.234375 0l-0.09375 -0.046875l-0.046875 0.046875zm58.44519 -31.4375q0.65625 -0.90625 1.6875 -1.0625q1.046875 -0.171875 1.90625 0.46875q0.875 0.640625 1.03125 1.671875q0.171875 1.03125 -0.4375 1.921875l-8.9375 12.125l8.9375 12.21875q0.890625 1.28125 0.15625 2.6875q-0.71875 1.40625 -2.109375 1.40625q-1.390625 0 -2.234375 -1.078125l-7.890625 -10.859375l-7.953125 10.859375q-0.84375 1.078125 -2.234375 1.078125q-1.375 0 -2.109375 -1.40625q-0.71875 -1.40625 0.171875 -2.6875l8.921875 -12.21875l-8.921875 -12.125q-0.609375 -0.890625 -0.453125 -1.921875q0.171875 -1.03125 1.03125 -1.671875q0.875 -0.640625 1.921875 -0.46875q1.0625 0.15625 1.671875 1.0625l7.953125 10.796875l7.890625 -10.796875zm29.307556 19.828125q-1.125 0 -1.953125 -0.8125q-0.8125 -0.828125 -0.8125 -1.984375q0 -1.15625 0.8125 -1.96875q0.828125 -0.828125 1.953125 -0.828125l8.84375 0q1.125 0 1.9375 0.828125q0.828125 0.8125 0.828125 1.96875q0 1.15625 -0.828125 1.984375q-0.8125 0.8125 -1.9375 0.8125l-8.84375 0zm43.048157 -21.296875q4.171875 0 7.125 2.96875q2.96875 2.953125 2.96875 7.125q0 4.15625 -2.96875 7.09375q-2.953125 2.9375 -7.125 2.9375l-5.78125 0l0 10.203125q0 1.078125 -0.78125 1.828125q-0.78125 0.75 -1.859375 0.75q-1.078125 0 -1.828125 -0.75q-0.75 -0.75 -0.75 -1.828125l0 -27.734375q0 -1.078125 0.75 -1.828125q0.75 -0.765625 1.828125 -0.765625l8.421875 0zm-5.78125 5.21875l0 9.6875l5.78125 0q2.015625 0 3.421875 -1.40625q1.421875 -1.421875 1.46875 -3.390625q-0.046875 -2.0625 -1.46875 -3.46875q-1.40625 -1.421875 -3.421875 -1.421875l-5.78125 0zm39.197388 22.703125q-4.671875 -4.984375 -4.671875 -11.9375q0 -6.953125 4.671875 -11.9375q4.671875 -4.984375 11.390625 -4.984375q6.71875 0 11.390625 5.0625q4.6875 5.046875 4.6875 11.90625q0 6.859375 -4.75 11.84375q-2.109375 2.359375 -5.078125 3.703125q-2.953125 1.328125 -6.15625 1.328125q-6.8125 0 -11.484375 -4.984375zm0.671875 -11.9375q0 4.75 3.15625 8.15625q3.15625 3.40625 7.59375 3.40625q4.4375 0 7.5625 -3.453125q3.125 -3.453125 3.125 -8.109375q0 -4.65625 -3.109375 -8.109375q-3.09375 -3.453125 -7.578125 -3.453125q-4.484375 0 -7.625 3.40625q-3.125 3.40625 -3.125 8.15625zm69.02954 6.90625q0 -3.5625 -8.265625 -5.125l-0.09375 0q-3.671875 -0.703125 -6.359375 -1.96875q-2.671875 -1.265625 -3.921875 -3.265625q-1.234375 -2.0 -1.234375 -4.109375q0 -4.09375 3.59375 -6.71875q3.59375 -2.640625 8.296875 -2.640625q2.0625 0 4.21875 0.703125q2.171875 0.703125 3.21875 1.328125q1.0625 0.609375 2.796875 1.734375q0.8125 0.5625 1.015625 1.546875q0.21875 0.984375 -0.328125 1.8125q-0.53125 0.828125 -1.53125 1.046875q-0.984375 0.203125 -1.828125 -0.359375q-2.203125 -1.515625 -3.921875 -2.265625q-1.71875 -0.75 -3.640625 -0.75q-3.109375 0 -5.078125 1.46875q-1.96875 1.453125 -1.96875 3.09375q0 0.796875 0.375 1.359375q1.3125 2.15625 7.09375 3.25l0.09375 0q3.953125 0.796875 6.484375 1.96875q5.828125 2.859375 5.828125 7.890625q0 4.375 -3.859375 7.171875q-3.84375 2.796875 -8.875 2.796875q-6.15625 -0.046875 -12.03125 -4.703125q-0.75 -0.609375 -0.875 -1.640625q-0.109375 -1.03125 0.5 -1.78125q0.609375 -0.765625 1.640625 -0.875q1.03125 -0.125 1.78125 0.546875q4.515625 3.65625 8.984375 3.609375q3.515625 0 5.703125 -1.609375q2.1875 -1.625 2.1875 -3.515625zm26.178955 -20.296875q0 -1.078125 0.75 -1.828125q0.75 -0.765625 1.828125 -0.765625q1.09375 0 1.859375 0.765625q0.78125 0.75 0.78125 1.828125l0 27.734375q0 1.078125 -0.78125 1.828125q-0.765625 0.75 -1.859375 0.75q-1.078125 0 -1.828125 -0.75q-0.75 -0.75 -0.75 -1.828125l0 -27.734375zm49.836304 -1.828125q0.765625 0.75 0.765625 1.828125q0 1.078125 -0.78125 1.859375q-0.78125 0.765625 -1.8125 0.765625l-7.46875 0l0 25.109375q0 1.078125 -0.75 1.828125q-0.75 0.75 -1.84375 0.75q-1.078125 0 -1.828125 -0.75q-0.75 -0.75 -0.75 -1.828125l0 -25.109375l-7.421875 0q-1.078125 0 -1.84375 -0.765625q-0.75 -0.78125 -0.75 -1.859375q0 -1.078125 0.75 -1.828125q0.765625 -0.765625 1.84375 -0.765625l20.0625 0q1.078125 0 1.828125 0.765625zm22.620605 1.828125q0 -1.078125 0.75 -1.828125q0.75 -0.765625 1.828125 -0.765625q1.09375 0 1.859375 0.765625q0.78125 0.75 0.78125 1.828125l0 27.734375q0 1.078125 -0.78125 1.828125q-0.765625 0.75 -1.859375 0.75q-1.078125 0 -1.828125 -0.75q-0.75 -0.75 -0.75 -1.828125l0 -27.734375zm39.086304 30.125q-0.140625 0 -0.421875 -0.28125l-0.046875 0q-0.046875 -0.046875 -0.328125 -0.234375q-0.046875 -0.09375 -0.140625 -0.203125q-0.09375 -0.125 -0.140625 -0.171875q-0.046875 -0.046875 -0.125 -0.203125q-0.0625 -0.171875 -0.15625 -0.265625l-11.515625 -27.453125q-0.4375 -0.9375 -0.03125 -1.9375q0.40625 -1.015625 1.4375 -1.40625q0.9375 -0.421875 1.921875 -0.015625q0.984375 0.40625 1.40625 1.390625l9.171875 21.75l9.15625 -21.75q0.4375 -0.984375 1.4375 -1.390625q1.015625 -0.40625 1.953125 0.015625q0.984375 0.390625 1.375 1.40625q0.40625 1.0 0.03125 1.9375l-11.609375 27.453125l-0.1875 0.375q0 0.046875 -0.046875 0.09375l-0.609375 0.609375q-0.09375 0.09375 -0.3125 0.1875q-0.203125 0.09375 -0.625 0.234375l-0.09375 0q-0.1875 0.046875 -0.5 0.046875q-0.296875 0 -0.4375 -0.046875l-0.09375 0q-0.1875 -0.09375 -0.375 -0.09375l-0.046875 -0.046875l-0.046875 0zm38.129578 -30.125q0 -1.078125 0.75 -1.828125q0.75 -0.765625 1.828125 -0.765625q1.09375 0 1.859375 0.765625q0.78125 0.75 0.78125 1.828125l0 27.734375q0 1.078125 -0.78125 1.828125q-0.765625 0.75 -1.859375 0.75q-1.078125 0 -1.828125 -0.75q-0.75 -0.75 -0.75 -1.828125l0 -27.734375zm49.836304 -1.828125q0.765625 0.75 0.765625 1.828125q0 1.078125 -0.78125 1.859375q-0.78125 0.765625 -1.8125 0.765625l-7.46875 0l0 25.109375q0 1.078125 -0.75 1.828125q-0.75 0.75 -1.84375 0.75q-1.078125 0 -1.828125 -0.75q-0.75 -0.75 -0.75 -1.828125l0 -25.109375l-7.421875 0q-1.078125 0 -1.84375 -0.765625q-0.75 -0.78125 -0.75 -1.859375q0 -1.078125 0.75 -1.828125q0.765625 -0.765625 1.84375 -0.765625l20.0625 0q1.078125 0 1.828125 0.765625zm40.995605 0.65625q0.65625 -0.90625 1.703125 -1.0625q1.0625 -0.171875 1.90625 0.46875q0.859375 0.640625 1.015625 1.703125q0.171875 1.046875 -0.4375 1.890625l-9.640625 13.203125l0 12.703125q0 1.078125 -0.75 1.828125q-0.75 0.75 -1.8125 0.75q-1.0625 0 -1.84375 -0.75q-0.765625 -0.75 -0.765625 -1.828125l0 -12.703125l-9.53125 -13.203125q-0.671875 -0.84375 -0.53125 -1.875q0.15625 -1.03125 1.046875 -1.6875q0.890625 -0.671875 1.921875 -0.5q1.03125 0.15625 1.640625 1.0625l8.046875 11.0l8.03125 -11.0z" fill-rule="nonzero"></path><path fill="#000000" fill-opacity="0.0" d="m363.35434 -35.257217l475.65353 0l0 168.7559l-475.65353 0z" fill-rule="nonzero"></path><path fill="#000000" d="m386.49496 101.037155l0 -88.671875q0 -1.359375 0.953125 -2.3125q0.953125 -0.953125 2.3125 -0.953125l48.96875 0q1.359375 0 2.296875 0.953125q0.953125 0.953125 0.953125 2.390625q0 1.421875 -0.953125 2.375q-0.9375 0.953125 -2.296875 0.953125l-45.5625 0l0 37.671875l39.84375 0q1.359375 0 2.3125 1.015625q0.953125 1.015625 0.953125 2.375q0 1.359375 -0.953125 2.3125q-0.953125 0.953125 -2.3125 0.953125l-39.84375 0l0 37.546875l45.5625 0q1.359375 0 2.296875 0.953125q0.953125 0.9375 0.953125 2.375q0 1.421875 -0.953125 2.375q-0.9375 0.953125 -2.296875 0.953125l-49.234375 0q-1.234375 -0.140625 -2.125 -1.015625q-0.875 -0.890625 -0.875 -2.25zm105.27295 -91.796875q1.359375 0 2.3125 1.015625q0.953125 1.015625 0.953125 2.390625q0 1.359375 -0.953125 2.3125q-0.953125 0.9375 -2.3125 0.9375q-6.265625 0 -8.71875 2.796875q-2.4375 2.78125 -2.4375 10.8125l0 7.0625l9.375 0q1.375 0 2.390625 0.953125q1.015625 0.953125 1.015625 2.3125q0 1.359375 -1.015625 2.390625q-1.015625 1.015625 -2.390625 1.015625l-9.375 0l0 57.9375q0 1.359375 -0.953125 2.3125q-0.953125 0.953125 -2.3125 0.953125q-1.359375 0 -2.390625 -0.953125q-1.015625 -0.953125 -1.015625 -2.3125l0 -57.9375l-8.828125 0q-1.359375 0 -2.3125 -1.015625q-0.953125 -1.03125 -0.953125 -2.390625q0 -1.359375 0.953125 -2.3125q0.953125 -0.953125 2.3125 -0.953125l8.828125 0l0 -7.0625q0.28125 -10.609375 4.359375 -15.5q4.34375 -4.765625 13.46875 -4.765625zm49.231964 0q1.359375 0 2.3125 1.015625q0.953125 1.015625 0.953125 2.390625q0 1.359375 -0.953125 2.3125q-0.953125 0.9375 -2.3125 0.9375q-6.265625 0 -8.71875 2.796875q-2.4375 2.78125 -2.4375 10.8125l0 7.0625l9.375 0q1.375 0 2.390625 0.953125q1.015625 0.953125 1.015625 2.3125q0 1.359375 -1.015625 2.390625q-1.015625 1.015625 -2.390625 1.015625l-9.375 0l0 57.9375q0 1.359375 -0.953125 2.3125q-0.953125 0.953125 -2.3125 0.953125q-1.359375 0 -2.390625 -0.953125q-1.015625 -0.953125 -1.015625 -2.3125l0 -57.9375l-8.828125 0q-1.359375 0 -2.3125 -1.015625q-0.953125 -1.03125 -0.953125 -2.390625q0 -1.359375 0.953125 -2.3125q0.953125 -0.953125 2.3125 -0.953125l8.828125 0l0 -7.0625q0.28125 -10.609375 4.359375 -15.5q4.34375 -4.765625 13.46875 -4.765625zm23.247559 91.796875l0 -60.109375q0 -1.359375 0.953125 -2.3125q0.953125 -0.953125 2.375 -0.953125q1.4375 0 2.390625 0.953125q0.953125 0.953125 0.953125 2.3125l0 60.109375q0 1.359375 -1.03125 2.3125q-1.015625 0.953125 -2.375 0.953125q-1.359375 0 -2.3125 -0.953125q-0.953125 -0.953125 -0.953125 -2.3125zm0 -78.75l0 -3.125q0 -1.359375 0.953125 -2.3125q0.953125 -0.953125 2.3125 -0.953125q1.359375 0 2.375 0.953125q1.03125 0.953125 1.03125 2.3125l0 3.125q0 1.5 -1.03125 2.53125q-1.015625 1.015625 -2.375 1.015625q-1.359375 0 -2.3125 -1.015625q-0.953125 -1.03125 -0.953125 -2.53125zm44.48163 79.296875q-0.6875 2.71875 -3.140625 2.71875l-0.8125 0q-1.5 -0.40625 -2.171875 -1.765625q-0.140625 -0.140625 -0.140625 -0.40625l-0.140625 -0.28125l0 -60.78125q0 -1.359375 0.953125 -2.3125q0.953125 -0.953125 2.3125 -0.953125q1.359375 0 2.25 0.953125q0.890625 0.953125 0.890625 2.3125l0 6.390625q8.015625 -9.65625 19.90625 -9.65625q11.90625 0 19.859375 7.953125q7.96875 7.953125 7.96875 19.109375l0 36.171875q0 1.359375 -0.953125 2.3125q-0.953125 0.953125 -2.3125 0.953125q-1.359375 0 -2.3125 -0.953125q-0.953125 -0.953125 -0.953125 -2.3125l0 -36.171875q0 -8.4375 -5.984375 -14.484375q-5.984375 -6.046875 -14.484375 -6.046875q-8.5 0 -14.484375 5.984375q-5.984375 5.96875 -6.25 14.546875l0 36.71875zm135.18042 -60.65625l0 58.078125q0 12.90625 -9.1875 22.078125q-9.171875 9.1875 -22.234375 9.1875q-6.65625 0 -13.875 -3.125q-2.71875 -1.90625 -1.359375 -4.34375q1.5 -3.125 4.359375 -1.5q5.171875 2.453125 10.875 2.453125q10.34375 0 17.609375 -7.21875q7.28125 -7.203125 7.28125 -17.53125l0 -8.171875q-4.21875 6.125 -10.75 9.59375q-6.515625 3.46875 -14.140625 3.46875q-13.046875 0 -22.171875 -9.71875q-9.109375 -9.734375 -9.109375 -23.390625q0 -13.671875 9.171875 -23.390625q9.1875 -9.734375 22.109375 -9.734375q7.484375 0 14.078125 3.546875q6.59375 3.53125 10.8125 9.515625l0 -9.796875q0 -1.359375 1.015625 -2.3125q1.03125 -0.953125 2.3125 -0.953125q1.296875 0 2.25 0.953125q0.953125 0.953125 0.953125 2.3125zm-56.171875 29.859375q0 11.078125 7.265625 18.90625q7.28125 7.8125 17.546875 7.8125q10.28125 0 17.546875 -7.8125q7.28125 -7.828125 7.28125 -18.984375q0 -11.15625 -7.28125 -18.828125q-7.265625 -7.6875 -17.546875 -7.6875q-10.265625 0 -17.546875 7.75q-7.265625 7.75 -7.265625 18.84375z" fill-rule="nonzero"></path></g></svg>

