<svg xmlns="http://www.w3.org/2000/svg" viewBox="0 0 723.2 746.9"><path d="M110.9,356.8l-4.9,1.5-1.3.4-4.1,1.5-1.7.6-5.2,2.1-2.1.9a179,179,0,0,0-27.3,15.1s13.2-6.6,29.4-12.9l1.9-.7,5.5-2,1.4-.5,4.5-1.5.8-.3,5.3-1.6h.1c-.4-.7-.9-1.6-1.7-2.8Z" style="fill:#862267"/><path d="M91.6,360.3l5-1.9,2.1-.8,3.8-1.4,1.6-.5,4.6-1.5,1-.3-1.9-2.7-1.4.4-4.2,1.4-1.9.7-3.6,1.4-2.3.9-4.7,2.1-2.5,1.2A164.4,164.4,0,0,0,64,372.4s11-5.4,25.2-11.2Z" style="fill:#862267"/><path d="M194.3,344a42.8,42.8,0,0,0-14.7,2.7l-6.7-1.8,1.8.2V281h-1.8a8.8,8.8,0,0,0-8.8-8,8.6,8.6,0,0,0-8.7,8h-1.9v22.7l-.7-1.3h0l-15.2-11-15.2,11h0l-6,12.4h2.3v27l-4.7,1.1c-7.6-8.2-25.5-19.7-44.2-23.6l-1.4-26.1c2-.9.9-4.6,0-6.8,1.2,2.5,3.6,6.8,5.4,4.5s-2.2-4.4-4.5-5.4c2.5.9,7.3,2.3,6.9-.6s-3.5-1.8-5.8-1c2.3-1.3,5.1-3.2,3.2-4.7s-3.9,1.3-5,3.5c.9-2.6,1.8-6.5-.8-6.2s-1.8,3.5-1,5.9c-1.3-2.4-3.2-5.2-4.7-3.3s.7,3.5,2.9,4.7c-2.6-.8-5.6-1.3-5.4,1.1s3.7,1.8,6.1,1c-2.5,1.2-6,3.3-3.9,5s4.4-2.2,5.4-4.5c-.9,2.5-2.2,7,.3,7L66,318.5a46.4,46.4,0,0,0-6.4-.7c-2-.1-4,0-6.1.1l-.4-.7v-6.8h.6a3.9,3.9,0,0,0,2.8-1.1h.3a1.6,1.6,0,0,0,1.7-1.7,3.4,3.4,0,0,0,3.4-3.4,3.3,3.3,0,0,0-2-3,4.6,4.6,0,0,0-1.7-1.7.8.8,0,0,0,.3-.7,1,1,0,0,0-1-1h-.4a3.8,3.8,0,0,0-3.1-1.7,3.6,3.6,0,0,0-2.3.8h-.5a2.8,2.8,0,0,0-1.8.6,2,2,0,0,0-1.1-.3,2.1,2.1,0,0,0-2,1.9,3.6,3.6,0,0,0-2.1,1.7,2,2,0,0,0-1.2,1.3,2.2,2.2,0,0,0-2,2.2,2,2,0,0,0,1.4,2,2,2,0,0,0,1.9,1.5,4.6,4.6,0,0,0,4,2.5h.6l1.7,1.9v5.9h-.2a105.7,105.7,0,0,0-12.5,2.3v-3.1h.4a2.7,2.7,0,0,0,1.7-.6h.2a1.1,1.1,0,0,0,1-1,2,2,0,0,0,2-2.1,2,2,0,0,0-1.2-1.8,3.2,3.2,0,0,0-1-1,.5.5,0,0,0,.2-.4.6.6,0,0,0-.6-.6h-.3a2,2,0,0,0-1.8-1.1,2.4,2.4,0,0,0-1.4.5h-.3a2,2,0,0,0-1.1.3h-.6a1.1,1.1,0,0,0-1.2,1.1,2.2,2.2,0,0,0-1.3,1,1.1,1.1,0,0,0-.7.8,1.2,1.2,0,0,0-1.2,1.3,1.3,1.3,0,0,0,.8,1.2,1.4,1.4,0,0,0,1.2.9,2.7,2.7,0,0,0,2.4,1.4h.3l1.1,1.2v2.4A165.5,165.5,0,0,0,7,332.5l-10.5,5.4c28.3-3.5,57,32.4,57,32.4,5.6-3,11.1-5.8,16.5-8.3-3.8,2.3-6,3.8-6,3.8s8.6-4.3,20.5-9.2l2.7-1.2,4.8-1.9,2.5-.9,3.5-1.4,2.2-.7,3.9-1.4,1.8-.6c9.1-3,18.3-5.4,26.1-6.2h11.2c9.3.8,20.9,3.3,32.1,6.1-22,9.8-41.3,32.2-41.3,32.2,60.3-13.6,143.1,0,143.1,0C232.2,355.7,222.7,344.5,194.3,344ZM49.7,310.2l.9-.5v1.6Zm-13.8,7,.6-.2v.9Z" style="fill:#862267"/><path d="M67.9,284.2c-.3,0-.7.3-.7.6a.8.8,0,0,0,.7.7.7.7,0,0,0,.7-.7A.7.7,0,0,0,67.9,284.2Z" style="fill:#a63384"/><path d="M201.7,347.8v2.5s37.8,10.3,60,25C261.7,375.3,223.8,348.9,201.7,347.8Z" style="fill:#a63384"/><path d="M201.7,355.9s33.8,8,53.6,19.4c0,0-33.8-20.4-53.6-21.2Z" style="fill:#a63384"/><path d="M202.2,361.6s27.6,5.2,43.8,12.6c0,0-27.7-13.3-43.8-13.8Z" style="fill:#a63384"/><path d="M155.2,306.8h-.1L141.7,297l-13.4,9.8h0L123,317.7h2v22.5a80.2,80.2,0,0,1,11-.8,121.6,121.6,0,0,1,22.4,2.3v-24h2.1l-5.3-10.9Z" style="fill:#a63384"/><path d="M280.1,72.4S-50.1,116.3,8.3,209.8c46.8,74.8,282.4,23.8,316.4,18.6s212.5-50.2,247.5,10.4c29.5,51.1-56.4,94-235.7,107.5S93.2,439.6,93.2,466.4c0,29.4-11.3,60.9,308.1,183.8,203.9,78.5,269.6,91.3,281.2,97,8.2,4,43.4,4.3,50.1.2V703.3l-.3-98.7s10.9,18-85.1,1.2C542.9,587.5,214.6,507.3,225,455.1c9.8-49.1,265.8-58.9,319.9-79.9,91.6-35.6,127-81.1,121.7-124.8s-15.3-104.3-226.8-88.5S43.4,231.5,43.4,176,280.1,72.4,280.1,72.4Z" style="fill:#862267"/><polygon points="397 74.4 386.3 68.2 364.8 63.5 359.6 52.9 350.3 54.7 340.3 41.2 324.3 44.3 300.4 28 293.9 31.1 285.6 28 271.4 45 267.2 37.7 253 60.4 246.1 51.6 242.2 59.3 220.5 32.4 212.4 20.1 212.4 5.2 205.2 10 199.4 5.2 178.7 30.3 164.8 25.5 156.1 46.2 148 43.6 143.5 59.8 124.8 67 115.5 76.6 275.3 80.8 269.7 76.3 397 74.4" style="fill:#862267;fill-rule:evenodd"/><polygon points="316.2 74.6 312.1 71.7 303.8 69.5 301.8 64.4 298.2 65.3 294.3 58.9 288.1 60.3 278.9 52.6 276.4 54.1 273.2 57.2 269.6 61 267.7 60.7 265.7 62.9 255.1 55 245.8 39.6 231 43.1 208.9 24.6 202.8 28.1 195.1 35.6 186.4 44.7 185.2 40.8 182 43.9 178.1 35.6 163.4 64.6 159.2 58.9 146.4 70.4 128.1 80.6 298.4 77.5 294.9 75 316.2 74.6" style="fill:#a63485;fill-rule:evenodd"/><polygon points="415.5 77.5 405.6 70.4 385.7 65 380.9 53 372.2 55 362.9 39.6 348.2 43.1 326 24.6 319.9 28.1 312.3 35.6 303.6 44.7 302.3 40.8 299.1 43.9 295.3 35.6 280.5 64.6 276.3 58.9 263.5 70.4 262.3 71.1 259.7 65.7 254.8 66.6 249.5 59.1 241 60.9 228.3 51.8 220.4 51.8 220.4 57.2 215.5 61.6 212.9 61.2 210.7 57.2 199.9 68.5 192.5 74.1 182.1 79.1 249.8 78 245.2 80.6 415.5 77.5" style="fill:#862267"/><polygon points="312.1 73.6 323.7 60.2 336.6 66.2 343.1 53.7 364.8 65.4 388.8 79.1 298.4 79.3 312.1 73.6" style="fill:#a63485;fill-rule:evenodd"/><polygon points="693.1 91.2 653 91.2 653 128.3 645.9 121.3 638.4 128.7 638.4 107.2 623.3 107.2 623.3 92 589.5 92 589.5 81.2 579.9 81.2 579.9 62.5 579 62.5 579 81.2 569.4 81.2 569.4 88.4 549.3 88.4 549.3 113.8 536.4 113.8 526.2 135 526.2 92.8 486.1 92.8 486.1 108.8 475.5 108.8 475.5 160.7 496.8 160.7 496.8 160.3 526.2 160.3 526.2 159.7 589.4 159.7 589.4 159.5 589.5 159.5 623.3 159.5 623.3 159.1 638.4 159.1 638.4 159 661.1 159 661.1 158.7 693.1 158.7 693.1 91.2" style="fill:#862267"/><polygon points="686.7 128.2 686.7 117.9 643.1 117.9 643.1 145 632 131.4 617.9 131.4 617.9 115 596.1 115 596.1 110.4 574.2 110.4 574.2 117.4 537.4 117.4 537.4 127.2 520.9 127.2 520.9 141 512.8 136.2 505.1 140.7 505.1 116.9 461.4 116.9 461.4 160.3 496.3 160.3 496.3 160.4 520.9 160.4 520.9 160.5 537.4 160.5 537.4 160.8 574.2 160.8 574.3 160.8 574.3 160.9 643.1 160.9 643.1 161.3 675.1 161.3 675.1 161.5 698.3 161.5 698.3 128.2 686.7 128.2" style="fill:#a63384"/><polygon points="482.3 138.8 454.6 138.8 439.7 162.6 482.3 162.6 482.3 163 498.5 163 498.5 132.4 482.3 132.4 482.3 138.8" style="fill:#862267"/><rect x="527.3" y="120.3" width="14.4" height="41.24" style="fill:#862267"/><polygon points="624.3 143.4 607.7 150.9 606.1 150.9 606.1 162.9 641.4 162.9 641.4 150.9 640.8 150.9 624.3 143.4" style="fill:#862267"/><rect x="681.8" y="127.7" width="27.1" height="34.95" style="fill:#862267"/><path d="M505.2,285.5v-6.8h-3.1v4.9l-7.7-4.9-17,10.7h3v8.7l-6.2-4-6.3,4a5.8,5.8,0,0,0-3.4-4.8,7.1,7.1,0,0,0-2.9-2.8,1.7,1.7,0,0,0,.5-1.2,1.7,1.7,0,0,0-1.7-1.7,1.1,1.1,0,0,0-.8.2,6,6,0,0,0-5.2-3h-1.2a5.4,5.4,0,0,0-4.5-2.7A4,4,0,0,0,446,279a8.8,8.8,0,0,0-5.2-4.1,4.9,4.9,0,0,0-4.9-4.6,4.4,4.4,0,0,0-2.6.7,7.2,7.2,0,0,0-4.3-1.5h-1.4a8.7,8.7,0,0,0-5.5-1.9,8.3,8.3,0,0,0-4.4,1.2h-.2a8.8,8.8,0,0,0-5.2-4,4.9,4.9,0,0,0-4.9-4.7,4.7,4.7,0,0,0-2.6.8,6.6,6.6,0,0,0-4.3-1.5h-1.4a8.6,8.6,0,0,0-13,2.3l-1-.2a2.5,2.5,0,0,0-2.5,2.4,2.9,2.9,0,0,0,.7,1.8,8.6,8.6,0,0,0-3.3,2.7,8.4,8.4,0,0,0-3.6,1.9l-1.8-13.9h0v-1.1c-.1-5.6-.4-15.7-.4-15.7s-1.2-3.2-14.9-3.3-16.1,2.4-16.1,2.4v20.5l-8,62.5,2.5.3,2.7-21.2,6.7,1L346,320.4l1.6.3,1.2-18.5,7.3,1.2v17.7h5.1V303.5l8.5-1.4,1.3,18.6,1.5-.3-1.2-18.5,5.8-1,.8.5,2.6,20.7,1.9-.2a5.4,5.4,0,0,1-2.5,1.5h21.9v-.5h16.6a68.1,68.1,0,0,1-7.5-2V300.5a10,10,0,0,0,5.4,1.5v20.3h4.1v-18a7.6,7.6,0,0,0,3.8,3.3v11.1c-.9,1.7-2.5,3.9-4.5,4.2H434l-2.1.5H456c-1.3-.2-2.5-1.7-3.1-2.9V308.9h1a6.6,6.6,0,0,0,4.7-1.8h.6l1.1-.2v16.2h27.8v-.3h20.2V289.4h3ZM345.5,262a9.2,9.2,0,0,0,2.4,1.7,19.5,19.5,0,0,1,2.3,1.4l-.5,5.9-5.2-.9Zm1.9,38.4-6.7-1,1.7-13.3,6,1.1Zm1.2-14.8-6-1,1.7-13.1,5.3,1.1Zm7.5,16.1-7.1-1.1,1-13.2,6.1,1.1Zm0-14.8-6-1,1.1-13,4.9.9Zm0-14.7-4.8-.9.5-5.5a12,12,0,0,0,4.3.8Zm17.9-.9v.9h-.4a2.5,2.5,0,0,0-2.5,2.5,2.8,2.8,0,0,0,.7,1.7,11.4,11.4,0,0,0-2.5,1.8l-.5-5.9Zm-2-8.8a2.7,2.7,0,0,0,.8-.7l1,8-5,1-.5-6.1A17.5,17.5,0,0,0,372,262.5Zm-10.8,4.2a22,22,0,0,0,5.6-1.3l.4,5.6-6,1.2Zm0,7.1,6.2-1.2.6,7.4c-.1.1-.2.2-.2.3a8.4,8.4,0,0,0-4.8,6.4l-1.8.3Zm0,28V288.7l1.8-.3a8.1,8.1,0,0,0,6.2,7.4l.4,4.7Zm10-1.5-.3-4.2h.3a4.1,4.1,0,0,0,2.6,3.8Zm13.2,18.9a13.7,13.7,0,0,1-1.5,2.1l-2.4-18.8a9.7,9.7,0,0,0,2.4.2h1.5Zm6-18.3a9.7,9.7,0,0,0,2.3,1.1l-2.3,2.7Zm5.6,22a45.5,45.5,0,0,1-5.6-1.6V307.1l4.2-4.7H396Zm8.9-4.2a10.1,10.1,0,0,1-3.1,3.7V302.2h3.1Zm26.1,2.4-.8-.3V310.5l.8.9Zm0-11.4-.8-.9v-.6l.8.3Zm6.1,12.2h-.2a7.2,7.2,0,0,1-1.7-2.2v-9.9l1.9,2.1Zm0-11.6-1.6-1.9h1.6Zm11.6,11.6a32,32,0,0,1-4.7,1.3,5.9,5.9,0,0,1-2.7-2.7V308.9h1a4.7,4.7,0,0,0,1.7-.2h1.7l3,3.3Zm0-11.6-1.7-1.9,1.7-.7Z" style="fill:#862267"/><path d="M373.4,254.8c-.1-5.2-.3-14.5-.3-14.5s-1.2-3-13.8-3.1-15,2.2-15,2.2v18.8a10.1,10.1,0,0,0,4.3,4.3c3.2,1.6,2.9,2.7,10.2,2.8a19.6,19.6,0,0,0,12.2-3.9S373.5,260,373.4,254.8Z" style="fill:#a63384"/><path d="M417.5,282.6a4.4,4.4,0,0,0-2.8-3.3,8.5,8.5,0,0,0-5.2-4,4.9,4.9,0,0,0-4.9-4.7,5,5,0,0,0-2.6.8,6.2,6.2,0,0,0-4.2-1.5h-1.4a9,9,0,0,0-5.6-1.9,8.7,8.7,0,0,0-7.4,4.2l-1.1-.2a2.5,2.5,0,0,0-2.5,2.4,2.5,2.5,0,0,0,.8,1.8,9.9,9.9,0,0,0-4.2,3.9,8.2,8.2,0,0,0-4.8,7.5,8.3,8.3,0,0,0,8.2,8.3,4.2,4.2,0,0,0,4.2,4.1h.8a10,10,0,0,0,6.7,2.6H393v16.6c-.9,1.7-2.5,3.8-4.5,4.2h18s-4-.9-7.5-2.1V300.8a10.8,10.8,0,0,0,5.6,1.6,11,11,0,0,0,9.8-6.1,5,5,0,0,0,4.8-3.7,5.1,5.1,0,0,0,3.4-4.8A5.2,5.2,0,0,0,417.5,282.6Z" style="fill:#a63384"/><polygon points="499 301 499 294.2 495.9 294.2 495.9 299.1 488.1 294.2 471.2 304.9 474.2 304.9 474.2 323.3 502.1 323.3 502.1 304.9 505.1 304.9 499 301" style="fill:#a63384"/><path d="M454.5,295.4a8.1,8.1,0,0,0-2.7-2.5,1.6,1.6,0,0,0,.5-1.1,1.6,1.6,0,0,0-1.6-1.6H450a5.8,5.8,0,0,0-4.9-2.7,5.9,5.9,0,0,0-3.6,1.3h-.9a4.2,4.2,0,0,0-2.7.9,3.4,3.4,0,0,0-1.7-.5,3.3,3.3,0,0,0-3.2,3.1,5.3,5.3,0,0,0-3.4,2.6,2.8,2.8,0,0,0-1.8,2.1,3.4,3.4,0,0,0-3.3,3.4,3.2,3.2,0,0,0,2.2,3.1,3.3,3.3,0,0,0,3.1,2.4,7.2,7.2,0,0,0,6.4,3.9h.8l2.8,3V322c-2.3.8-4.8,1.4-4.8,1.4h11.6c-1.2-.2-2.3-1.6-2.9-2.7V309.9h1a6.4,6.4,0,0,0,4.4-1.7h.5a2.6,2.6,0,0,0,2.7-2.6,5.4,5.4,0,0,0,5.3-5.4A5.6,5.6,0,0,0,454.5,295.4Zm-14.7,15.9-1.5-1.8,1.5-.7Z" style="fill:#a63384"/><path d="M358.9,242.5s16.5.2,16.7-3c.1-.5-.3-.9-1-1.3h.4l-15.7-7.8L343.6,238h.2a3.7,3.7,0,0,0-2,1.4C340.5,242.6,358.9,242.5,358.9,242.5Z" style="fill:#862267"/><rect x="341.7" y="253.4" width="33.9" height="2.66" style="fill:#862267"/><path d="M521.5,323.4s-130-6.9-172.2-3.7l-42.2,3.2s53.4-1.2,64.5,1S452.9,323.4,521.5,323.4Z" style="fill:#862267"/></svg>
