<svg xmlns="http://www.w3.org/2000/svg" viewBox="0 0 386.6 64.4"><title>Artboard 5</title><polygon points="386.6 35.9 377.8 35.9 377.8 26.1 364.7 26.1 348 26.1 348 16.3 340 16.3 340 35.9 334.2 35.9 334.2 30.4 324 30.4 324 26.1 313 26.1 313 16.3 297 16.3 297 24.3 287.6 24.3 287.6 34.4 287.1 34.3 281 34.3 281 24.3 270.1 24.3 270.1 34.3 268.2 34.3 251.4 31 241 31 209.8 16.5 185.1 25.1 170.2 21.1 161.1 21.1 130.6 11.2 119.5 16.5 111.7 7.9 99.4 11.2 84.4 0 75.3 11.2 65 0 57.2 11.2 38.3 21.1 38.3 16.5 27.9 16.5 20.8 11.2 0 25.1 0 64.4 380 64.4 380.1 64.3 386.4 64.4 386.6 35.9" style="fill:#a63485"/></svg>